<svg xmlns="http://www.w3.org/2000/svg" width="32.601" height="24.098" viewBox="0 0 32.601 24.098">
  <path id="icons8-discord_1_" data-name="icons8-discord (1)" d="M29.084,7.323C26.261,5.055,21.8,4.671,21.61,4.654a.708.708,0,0,0-.7.416c0,.009-.254.732-.495,1.43a18.417,18.417,0,0,1,5.627,1.918,1.165,1.165,0,0,1-1.171,2.013A16.715,16.715,0,0,0,17.3,8.55a16.742,16.742,0,0,0-7.567,1.88A1.165,1.165,0,0,1,8.565,8.418,18.431,18.431,0,0,1,14.209,6.5c-.254-.706-.51-1.417-.515-1.426a.7.7,0,0,0-.7-.416c-.189.015-4.652.4-7.511,2.7C3.985,8.734,1,16.808,1,23.788a.7.7,0,0,0,.093.35c2.062,3.621,7.683,4.569,8.964,4.61h.022a.711.711,0,0,0,.573-.291l1.386-1.877A14.091,14.091,0,0,1,7.3,24.626a1.164,1.164,0,0,1,1.375-1.879c.043.028,3.009,2.1,8.63,2.1,5.644,0,8.6-2.084,8.63-2.105a1.165,1.165,0,0,1,1.377,1.878,14.022,14.022,0,0,1-4.727,1.953l1.368,1.88a.708.708,0,0,0,.573.291h.022c1.282-.041,6.9-.989,8.964-4.61a.7.7,0,0,0,.093-.35C33.6,16.808,30.616,8.734,29.084,7.323ZM12.643,21.358a2.668,2.668,0,0,1-2.329-2.911,2.668,2.668,0,0,1,2.329-2.911,2.668,2.668,0,0,1,2.329,2.911A2.668,2.668,0,0,1,12.643,21.358Zm9.315,0a2.668,2.668,0,0,1-2.329-2.911,2.668,2.668,0,0,1,2.329-2.911,2.668,2.668,0,0,1,2.329,2.911A2.668,2.668,0,0,1,21.958,21.358Z" transform="translate(-1 -4.651)" fill="#707070"/>
</svg>
