<svg xmlns="http://www.w3.org/2000/svg" width="491.359" height="404.289" viewBox="0 0 491.359 404.289">
  <g id="Layer_2" data-name="Layer 2" transform="translate(0)" opacity="0.1">
    <g id="Background" transform="translate(0)">
      <path id="Path_749" data-name="Path 749" d="M635.623,934.228h0a108.524,108.524,0,0,0-12.054.7c-4.034.454-8.246,1.135-12.52,2.024a181.845,181.845,0,0,0-25.763,7.51,246.266,246.266,0,0,0-49.692,25.371A222.509,222.509,0,0,0,514.369,985.7a155.591,155.591,0,0,0-17.006,16.666,84.707,84.707,0,0,0-11.434,16.48,46.6,46.6,0,0,0-3.2,7.867,30.524,30.524,0,0,0-1.292,7.46,41.4,41.4,0,0,0,3.264,17.91,46.23,46.23,0,0,0,4.343,7.931,55.286,55.286,0,0,0,5.891,7.22,77.1,77.1,0,0,0,16.85,12.947,116.053,116.053,0,0,0,21.151,9.466,147.767,147.767,0,0,0,23.6,5.811,151.755,151.755,0,0,0,24.206,1.978c15.178,0,29-2.424,39.965-7.01a89.512,89.512,0,0,0,20.081-11.9,123.679,123.679,0,0,0,17.748-16.959,151.84,151.84,0,0,0,25.641-42.1,124.589,124.589,0,0,0,5.009-15.182,93.676,93.676,0,0,0,2.6-14.511,63.183,63.183,0,0,0-.062-13.257,40.246,40.246,0,0,0-2.975-11.418,55.182,55.182,0,0,0-4.095-7.671,48.75,48.75,0,0,0-4.971-6.479,46.445,46.445,0,0,0-5.773-5.336,47.823,47.823,0,0,0-6.5-4.245,52.621,52.621,0,0,0-7.153-3.208,60.868,60.868,0,0,0-7.73-2.223,72.435,72.435,0,0,0-8.235-1.294C641.511,934.369,638.6,934.228,635.623,934.228Zm-54.883,162.73a151.3,151.3,0,0,1-24.129-1.971,147.274,147.274,0,0,1-23.525-5.792c-15.861-5.361-28.935-13.069-37.808-22.29a49.73,49.73,0,0,1-10.138-15,41.038,41.038,0,0,1-3.226-17.7c.347-9.032,5.815-19.928,15.812-31.51,9.505-11.012,22.691-22.232,38.132-32.448a245.777,245.777,0,0,1,49.593-25.32,181.316,181.316,0,0,1,25.694-7.49,121.005,121.005,0,0,1,24.476-2.717c12.288,0,22.9,2.384,31.553,7.086,9.428,5.125,16.537,13.032,21.128,23.5,5.661,12.909,3.993,32.59-4.575,54a151.367,151.367,0,0,1-25.558,41.961c-11.5,13.306-24.523,23.241-37.65,28.73C609.611,1094.547,595.855,1096.958,580.741,1096.958Z" transform="translate(-270.06 -799.703)" fill="aqua"/>
      <path id="Path_750" data-name="Path 750" d="M622.873,885.755h-.017a116.535,116.535,0,0,0-13.106.775c-4.382.5-8.953,1.249-13.589,2.229a193.686,193.686,0,0,0-27.9,8.267,261.847,261.847,0,0,0-53.663,27.947,237.517,237.517,0,0,0-22.863,17.5,167.418,167.418,0,0,0-18.285,18.407,92.571,92.571,0,0,0-12.257,18.241,51.959,51.959,0,0,0-3.411,8.73,34.619,34.619,0,0,0-1.346,8.3,49.149,49.149,0,0,0,.13,5.409,47.548,47.548,0,0,0,.71,5.221,48.035,48.035,0,0,0,3.049,9.862,53.358,53.358,0,0,0,5.029,9.062,63.747,63.747,0,0,0,6.779,8.236,87.648,87.648,0,0,0,18.663,14.359,128.53,128.53,0,0,0,23.2,10.512,163.076,163.076,0,0,0,52.02,8.666,132.034,132.034,0,0,0,22.556-1.856,91.532,91.532,0,0,0,19.9-5.681,87.141,87.141,0,0,0,10.953-5.61,104.405,104.405,0,0,0,10.425-7.208,132.409,132.409,0,0,0,18.908-18.292,163.129,163.129,0,0,0,15.724-21.93A166.674,166.674,0,0,0,676.3,983.16a142.691,142.691,0,0,0,5.742-17.409,108.623,108.623,0,0,0,3-16.7A73.564,73.564,0,0,0,685,933.773a52.359,52.359,0,0,0-1.25-6.891,41.7,41.7,0,0,0-2.121-6.272,63.115,63.115,0,0,0-4.56-8.662,55.273,55.273,0,0,0-5.522-7.316,52.083,52.083,0,0,0-6.4-6.026,52.991,52.991,0,0,0-7.2-4.793,57.741,57.741,0,0,0-7.911-3.62,66.22,66.22,0,0,0-8.54-2.508,78.42,78.42,0,0,0-9.086-1.458A94.23,94.23,0,0,0,622.873,885.755Zm-56.862,181a162.345,162.345,0,0,1-51.785-8.626c-17.3-5.946-31.682-14.484-41.578-24.691a57.2,57.2,0,0,1-11.663-17.08,46.976,46.976,0,0,1-3.83-20.184c.158-5.1,1.733-10.733,4.683-16.731A91.859,91.859,0,0,1,474,961.345c10.19-12.153,24.368-24.523,41-35.774A261.112,261.112,0,0,1,568.512,897.7a192.972,192.972,0,0,1,27.8-8.236,129.436,129.436,0,0,1,26.545-2.988h.017c13.506,0,25.187,2.68,34.722,7.967,10.4,5.767,18.264,14.667,23.37,26.453,6.436,14.857,4.491,37.453-5.336,61.994a165.949,165.949,0,0,1-11.768,23.637,162.4,162.4,0,0,1-15.654,21.833,131.689,131.689,0,0,1-18.8,18.192,94.276,94.276,0,0,1-21.214,12.722C596.624,1064.168,582.039,1066.754,566.01,1066.754Z" transform="translate(-259.73 -758.259)" fill="aqua"/>
      <path id="Path_751" data-name="Path 751" d="M617.7,846.151h0a123.592,123.592,0,0,0-14.207.855c-4.743.552-9.685,1.38-14.689,2.463a202.887,202.887,0,0,0-30.065,9.143A273.864,273.864,0,0,0,501.2,889.566a250.42,250.42,0,0,0-24.414,19.426,178.942,178.942,0,0,0-19.467,20.48,101.563,101.563,0,0,0-12.985,20.369,58.846,58.846,0,0,0-3.574,9.789,40.271,40.271,0,0,0-1.357,9.339,57.866,57.866,0,0,0,.226,6.374,55.985,55.985,0,0,0,2.464,12.072,58.208,58.208,0,0,0,2.167,5.686,63.67,63.67,0,0,0,6.026,10.643,75.831,75.831,0,0,0,8.043,9.644,101.9,101.9,0,0,0,20.8,16.04,143.356,143.356,0,0,0,25.46,11.765,171.979,171.979,0,0,0,27.987,7.248,168.163,168.163,0,0,0,28.386,2.475,135.462,135.462,0,0,0,23.584-1.976,94.36,94.36,0,0,0,20.813-6.06,89.894,89.894,0,0,0,10.275-5.264,105.974,105.974,0,0,0,9.837-6.644,133.382,133.382,0,0,0,18.121-16.755,169.023,169.023,0,0,0,15.649-20.266A188.4,188.4,0,0,0,671.93,971.5c7.423-15.516,12.453-31.476,14.546-46.155a96.8,96.8,0,0,0,.852-21.074,57.5,57.5,0,0,0-4.125-17.99,74.145,74.145,0,0,0-5.135-9.972,64.1,64.1,0,0,0-6.2-8.425,58.884,58.884,0,0,0-15.2-12.46C645.914,849.272,632.8,846.151,617.7,846.151Zm-56.739,203.56a166.961,166.961,0,0,1-28.182-2.457,170.763,170.763,0,0,1-27.79-7.2c-18.817-6.635-34.654-16.149-45.8-27.512a67.8,67.8,0,0,1-13.827-19.931,55.34,55.34,0,0,1-4.754-23.621c.111-5.7,1.733-11.974,4.82-18.645a100.374,100.374,0,0,1,12.833-20.123c10.793-13.5,25.88-27.218,43.632-39.673a272.652,272.652,0,0,1,57.281-30.817,201.7,201.7,0,0,1,29.885-9.089,136.4,136.4,0,0,1,28.641-3.291c14.892,0,27.8,3.067,38.371,9.115,11.537,6.6,20.293,16.791,26.025,30.282a56.307,56.307,0,0,1,4.033,17.613,95.6,95.6,0,0,1-.844,20.81c-2.076,14.559-7.069,30.4-14.44,45.805a178.927,178.927,0,0,1-28.148,42.426,132.17,132.17,0,0,1-17.956,16.6,96.089,96.089,0,0,1-19.861,11.761C592.837,1046.965,577.65,1049.71,560.958,1049.71Z" transform="translate(-259.337 -724.455)" fill="aqua"/>
      <path id="Path_752" data-name="Path 752" d="M653.112,968.539h-.005a114.105,114.105,0,0,0-22.56,2.453,172.467,172.467,0,0,0-23.755,6.749,234.344,234.344,0,0,0-46.033,22.76,210.468,210.468,0,0,0-19.743,14.2,145.373,145.373,0,0,0-15.87,14.887,77.2,77.2,0,0,0-10.729,14.679,32.572,32.572,0,0,0-4.305,13.6,35.468,35.468,0,0,0,.461,7.841,34.847,34.847,0,0,0,2.106,7.286,38.471,38.471,0,0,0,3.594,6.711,46.071,46.071,0,0,0,4.923,6.123,65.674,65.674,0,0,0,14.97,11.474,103.086,103.086,0,0,0,19.082,8.364,136.25,136.25,0,0,0,21.49,5.122,144.365,144.365,0,0,0,22.2,1.739,121.949,121.949,0,0,0,20.215-1.617,84.068,84.068,0,0,0,17.855-4.937,85.441,85.441,0,0,0,19.044-11.07,116.277,116.277,0,0,0,16.8-15.725,136.9,136.9,0,0,0,13.824-18.685,130.3,130.3,0,0,0,10.108-19.953,104.424,104.424,0,0,0,4.193-12.722,77.1,77.1,0,0,0,2.148-12.1,51.756,51.756,0,0,0-.1-11.033,33.408,33.408,0,0,0-2.555-9.518,46.68,46.68,0,0,0-3.614-6.614,41.84,41.84,0,0,0-4.405-5.588,40.564,40.564,0,0,0-5.13-4.6,42.529,42.529,0,0,0-5.789-3.663,47.564,47.564,0,0,0-6.381-2.768,55.7,55.7,0,0,0-6.908-1.919,66.935,66.935,0,0,0-7.37-1.117C658.388,968.661,655.776,968.539,653.112,968.539Zm-54.176,143.512a143.924,143.924,0,0,1-22.124-1.734,135.8,135.8,0,0,1-21.414-5.1c-14.388-4.733-26.094-11.55-33.853-19.713-7.783-8.19-11.468-17.477-10.953-27.6.406-7.975,5.562-17.65,14.911-27.981,8.893-9.827,21.174-19.858,35.516-29.009a233.855,233.855,0,0,1,45.937-22.712,172,172,0,0,1,23.688-6.73,113.629,113.629,0,0,1,22.464-2.444h.006c11.006,0,20.492,2.056,28.2,6.11a41.281,41.281,0,0,1,18.723,20.238,32.927,32.927,0,0,1,2.516,9.38,51.27,51.27,0,0,1,.1,10.93,76.622,76.622,0,0,1-2.135,12.025,103.931,103.931,0,0,1-4.174,12.663,129.79,129.79,0,0,1-10.07,19.878,136.393,136.393,0,0,1-13.775,18.619c-10.894,12.342-23.227,21.564-35.667,26.669C626.433,1109.8,613.331,1112.051,598.936,1112.051Z" transform="translate(-285.46 -829.074)" fill="aqua"/>
      <path id="Path_753" data-name="Path 753" d="M670.623,970.676h-.005a103.406,103.406,0,0,0-11.44.665c-3.829.429-7.828,1.073-11.888,1.913a173.794,173.794,0,0,0-24.477,7.1,235.454,235.454,0,0,0-47.255,23.966,212.414,212.414,0,0,0-20.2,14.983,148.182,148.182,0,0,0-16.2,15.73,80.24,80.24,0,0,0-10.9,15.546,35.127,35.127,0,0,0-4.3,14.45,39.265,39.265,0,0,0,.6,8.668,38.835,38.835,0,0,0,2.408,8.048,43.024,43.024,0,0,0,4.038,7.406,51.528,51.528,0,0,0,5.488,6.745,72.129,72.129,0,0,0,15.895,12.206,109.436,109.436,0,0,0,20.012,8.919,140.4,140.4,0,0,0,22.372,5.473,145.121,145.121,0,0,0,22.976,1.862c14.513,0,27.727-2.309,38.214-6.678a85.64,85.64,0,0,0,19.192-11.331,118.007,118.007,0,0,0,16.956-16.137,142.18,142.18,0,0,0,14.026-19.262,140.269,140.269,0,0,0,10.4-20.711,116.149,116.149,0,0,0,4.666-14.146,86.966,86.966,0,0,0,2.413-13.507,58.59,58.59,0,0,0-.068-12.334,37.423,37.423,0,0,0-2.786-10.628,51.524,51.524,0,0,0-3.857-7.19,45.642,45.642,0,0,0-4.685-6.073,43.642,43.642,0,0,0-5.445-5,45.094,45.094,0,0,0-6.134-3.98,49.786,49.786,0,0,0-6.751-3.007,57.692,57.692,0,0,0-7.3-2.084,68.852,68.852,0,0,0-7.778-1.213C676.183,970.808,673.43,970.676,670.623,970.676ZM617.742,1123.87a144.574,144.574,0,0,1-22.9-1.856,139.906,139.906,0,0,1-22.295-5.454c-15.022-5.05-27.371-12.313-35.713-21-8.685-9.046-12.856-19.312-12.4-30.513.347-8.5,5.564-18.773,15.088-29.7,9.056-10.39,21.608-20.981,36.3-30.627A234.972,234.972,0,0,1,622.98,980.8a173.338,173.338,0,0,1,24.408-7.077,115.4,115.4,0,0,1,23.229-2.568h.005c11.6,0,21.624,2.234,29.782,6.639a44.769,44.769,0,0,1,19.908,22.016c5.285,12,3.743,30.312-4.231,50.242-12.265,30.653-35.938,57.02-60.311,67.174C645.343,1121.574,632.193,1123.87,617.742,1123.87Z" transform="translate(-307.984 -830.903)" fill="aqua"/>
      <path id="Path_754" data-name="Path 754" d="M660.565,972.092h0a101.659,101.659,0,0,0-11.228.652c-3.76.42-7.69,1.051-11.681,1.876a172.142,172.142,0,0,0-24.083,6.955,234.073,234.073,0,0,0-46.579,23.465,211.037,211.037,0,0,0-19.939,14.652,146.625,146.625,0,0,0-16,15.365,78.708,78.708,0,0,0-10.779,15.16,33.883,33.883,0,0,0-4.264,14.059,37.81,37.81,0,0,0,.562,8.349,37.36,37.36,0,0,0,2.307,7.753,41.355,41.355,0,0,0,3.88,7.135,49.5,49.5,0,0,0,5.279,6.5,69.553,69.553,0,0,0,15.419,11.837,106.179,106.179,0,0,0,19.454,8.645,136.92,136.92,0,0,0,21.776,5.3,142.122,142.122,0,0,0,22.386,1.8c14.215,0,27.157-2.256,37.428-6.523a84.925,84.925,0,0,0,19.118-11.3,119.023,119.023,0,0,0,16.984-16.156,143.086,143.086,0,0,0,14.078-19.267,138.246,138.246,0,0,0,10.4-20.634,111.675,111.675,0,0,0,4.435-13.4,82.394,82.394,0,0,0,2.307-12.757,54.964,54.964,0,0,0-.044-11.628,35.013,35.013,0,0,0-2.625-10.013,49.25,49.25,0,0,0-3.722-6.913,43.783,43.783,0,0,0-4.53-5.839,42.041,42.041,0,0,0-5.27-4.811,43.635,43.635,0,0,0-5.942-3.828,48.406,48.406,0,0,0-6.545-2.892,56.3,56.3,0,0,0-7.081-2.005,67.366,67.366,0,0,0-7.55-1.167C665.968,972.22,663.293,972.092,660.565,972.092Zm-53.49,149.027a141.607,141.607,0,0,1-22.31-1.8,136.444,136.444,0,0,1-21.7-5.284c-14.613-4.894-26.6-11.934-34.679-20.358-8.351-8.713-12.353-18.6-11.9-29.384.35-8.254,5.511-18.255,14.923-28.921,8.951-10.143,21.344-20.494,35.839-29.932a233.575,233.575,0,0,1,46.482-23.416,171.638,171.638,0,0,1,24.015-6.936,113.652,113.652,0,0,1,22.812-2.517h0c11.27,0,20.992,2.148,28.9,6.385a43,43,0,0,1,19.25,21.161A34.535,34.535,0,0,1,711.3,1010a54.479,54.479,0,0,1,.043,11.525,81.917,81.917,0,0,1-2.294,12.682,111.157,111.157,0,0,1-4.416,13.344,137.747,137.747,0,0,1-10.36,20.562,142.607,142.607,0,0,1-14.03,19.2c-11.048,12.7-23.47,22.149-35.924,27.323C634.106,1118.877,621.227,1121.12,607.075,1121.12Z" transform="translate(-295.049 -832.115)" fill="aqua"/>
      <path id="Path_755" data-name="Path 755" d="M625.933,888.876h-.014a120.5,120.5,0,0,0-13.508.8c-4.517.513-9.231,1.283-14.012,2.289a200.768,200.768,0,0,0-28.79,8.492,271.536,271.536,0,0,0-55.412,28.7,245.97,245.97,0,0,0-23.624,17.966,173.013,173.013,0,0,0-18.9,18.889,95.269,95.269,0,0,0-12.684,18.709,53.186,53.186,0,0,0-3.536,8.949,35.267,35.267,0,0,0-1.4,8.5,49.947,49.947,0,0,0,.12,5.5,48.123,48.123,0,0,0,3.79,15.332,54.123,54.123,0,0,0,5.1,9.214,64.679,64.679,0,0,0,6.88,8.378,89.261,89.261,0,0,0,19.141,14.722,131.815,131.815,0,0,0,23.856,10.773,165.019,165.019,0,0,0,26.508,6.621,167.182,167.182,0,0,0,27.1,2.256,137.4,137.4,0,0,0,23.395-1.919,95.186,95.186,0,0,0,20.646-5.873,90.462,90.462,0,0,0,11.357-5.8,108.329,108.329,0,0,0,10.809-7.45,137.057,137.057,0,0,0,19.6-18.9,168.093,168.093,0,0,0,16.281-22.636,170.543,170.543,0,0,0,12.2-24.47,145.021,145.021,0,0,0,5.832-17.683,110.007,110.007,0,0,0,3.038-16.943,74.411,74.411,0,0,0-.048-15.5,53.019,53.019,0,0,0-1.275-6.989,42.3,42.3,0,0,0-2.161-6.364,64.154,64.154,0,0,0-4.669-8.837,56.317,56.317,0,0,0-5.658-7.464,53.231,53.231,0,0,0-6.564-6.148,54.344,54.344,0,0,0-7.383-4.89,59.373,59.373,0,0,0-8.116-3.693,68.253,68.253,0,0,0-8.764-2.559,80.925,80.925,0,0,0-9.328-1.488A97.319,97.319,0,0,0,625.933,888.876Zm-59.4,185.36a166.48,166.48,0,0,1-26.983-2.246,164.285,164.285,0,0,1-26.392-6.592c-17.815-6.094-32.585-14.848-42.712-25.314a58.026,58.026,0,0,1-11.831-17.375,47.706,47.706,0,0,1-3.853-20.521c.172-5.23,1.81-11,4.866-17.152a94.558,94.558,0,0,1,12.589-18.564C482.761,954,497.416,941.3,514.6,929.751a270.81,270.81,0,0,1,55.261-28.622,200.02,200.02,0,0,1,28.686-8.461,133.976,133.976,0,0,1,27.372-3.07h.015c13.874,0,25.868,2.735,35.653,8.132,10.672,5.885,18.733,14.967,23.96,26.994,6.55,15.068,4.584,38-5.394,62.922A169.805,169.805,0,0,1,668,1012.012a167.369,167.369,0,0,1-16.21,22.538,136.334,136.334,0,0,1-19.5,18.8,97.845,97.845,0,0,1-22,13.152C598.295,1071.561,583.162,1074.235,566.534,1074.235Z" transform="translate(-264.044 -760.93)" fill="aqua"/>
      <path id="Path_756" data-name="Path 756" d="M625.819,891H625.8a122.918,122.918,0,0,0-13.823.817c-4.621.526-9.443,1.317-14.331,2.349a204.417,204.417,0,0,0-29.428,8.712,276.362,276.362,0,0,0-56.595,29.445,250.629,250.629,0,0,0-24.116,18.439,176.629,176.629,0,0,0-19.293,19.4,97.64,97.64,0,0,0-12.94,19.228,54.8,54.8,0,0,0-3.6,9.209,36.51,36.51,0,0,0-1.426,8.76,51.773,51.773,0,0,0,.134,5.7,49.73,49.73,0,0,0,2.075,10.8,51.387,51.387,0,0,0,1.88,5.092,56.2,56.2,0,0,0,5.295,9.546,67.12,67.12,0,0,0,7.136,8.674,92.286,92.286,0,0,0,19.672,15.136,135.421,135.421,0,0,0,24.456,11.076,172.04,172.04,0,0,0,54.852,9.128,139.445,139.445,0,0,0,23.813-1.958,96.737,96.737,0,0,0,21.022-6,92.119,92.119,0,0,0,11.568-5.921,110.281,110.281,0,0,0,11.008-7.607,139.741,139.741,0,0,0,19.961-19.3,172.015,172.015,0,0,0,16.593-23.128,175.549,175.549,0,0,0,12.467-25.031,150.148,150.148,0,0,0,6.042-18.316,114.258,114.258,0,0,0,3.153-17.568,77.391,77.391,0,0,0-.041-16.085,55.149,55.149,0,0,0-1.317-7.257,43.938,43.938,0,0,0-2.236-6.609,66.463,66.463,0,0,0-4.807-9.127,58.214,58.214,0,0,0-5.823-7.71,54.9,54.9,0,0,0-6.753-6.351,55.892,55.892,0,0,0-7.593-5.052,60.936,60.936,0,0,0-8.344-3.815,69.885,69.885,0,0,0-9.006-2.642,82.71,82.71,0,0,0-9.581-1.536A99.389,99.389,0,0,0,625.819,891Zm-60.073,190.539a171.093,171.093,0,0,1-54.539-9.076c-18.216-6.255-33.344-15.235-43.749-25.971a60.018,60.018,0,0,1-12.238-17.93,49.284,49.284,0,0,1-4.012-21.179c.168-5.358,1.827-11.27,4.932-17.573a96.687,96.687,0,0,1,12.814-19.034c10.74-12.79,25.682-25.811,43.21-37.656a275.375,275.375,0,0,1,56.394-29.342,203.427,203.427,0,0,1,29.289-8.671,136.4,136.4,0,0,1,27.956-3.145h.017c14.207,0,26.492,2.815,36.517,8.369,10.932,6.056,19.2,15.4,24.56,27.78,6.756,15.592,4.711,39.318-5.612,65.093a174.576,174.576,0,0,1-12.4,24.894,171.031,171.031,0,0,1-16.5,23,138.781,138.781,0,0,1-19.822,19.164,99.383,99.383,0,0,1-22.358,13.4C598.016,1078.817,582.641,1081.541,565.746,1081.541Z" transform="translate(-265.147 -762.799)" fill="aqua"/>
      <path id="Path_757" data-name="Path 757" d="M600.542,765.555a130.569,130.569,0,0,0-15,.9c-5.011.583-10.232,1.458-15.52,2.6a214.458,214.458,0,0,0-31.778,9.664,289.562,289.562,0,0,0-60.836,32.729,264.711,264.711,0,0,0-25.811,20.538,189.1,189.1,0,0,0-20.573,21.643,107.222,107.222,0,0,0-13.707,21.5,62.012,62.012,0,0,0-3.766,10.313,42.344,42.344,0,0,0-1.427,9.819,60.958,60.958,0,0,0,.239,6.715,58.973,58.973,0,0,0,2.6,12.717,61.31,61.31,0,0,0,2.283,5.99c.854,1.931,1.826,3.861,2.891,5.738,1.047,1.847,2.212,3.691,3.461,5.48a79.975,79.975,0,0,0,8.483,10.171,107.569,107.569,0,0,0,21.956,16.931,151.435,151.435,0,0,0,26.9,12.428A181.735,181.735,0,0,0,510.5,979.1a177.675,177.675,0,0,0,29.994,2.615,143.05,143.05,0,0,0,24.911-2.088,99.581,99.581,0,0,0,21.967-6.4,94.873,94.873,0,0,0,10.843-5.555A111.87,111.87,0,0,0,608.6,960.66a140.881,140.881,0,0,0,19.14-17.7,178.615,178.615,0,0,0,16.537-21.415,199.1,199.1,0,0,0,13.414-23.725c7.844-16.4,13.159-33.259,15.37-48.767a102.178,102.178,0,0,0,.9-22.243,60.583,60.583,0,0,0-4.345-18.953,78.214,78.214,0,0,0-5.416-10.517,67.554,67.554,0,0,0-6.531-8.88,62.043,62.043,0,0,0-16.02-13.128,67.1,67.1,0,0,0-9.291-4.392,75.931,75.931,0,0,0-10.013-3.043,89.045,89.045,0,0,0-10.637-1.77A106.273,106.273,0,0,0,600.542,765.555ZM540.492,980.99a176.966,176.966,0,0,1-29.872-2.6,181.016,181.016,0,0,1-29.456-7.628c-19.954-7.036-36.751-17.128-48.575-29.184A72.036,72.036,0,0,1,417.9,920.4a58.845,58.845,0,0,1-5.056-25.117c.118-6.072,1.843-12.748,5.127-19.843a106.5,106.5,0,0,1,13.616-21.353c11.438-14.307,27.426-28.844,46.234-42.041A288.822,288.822,0,0,1,538.5,779.4a213.759,213.759,0,0,1,31.67-9.632,144.624,144.624,0,0,1,30.371-3.489c15.81,0,29.519,3.258,40.747,9.683,12.263,7.018,21.57,17.845,27.661,32.18a59.865,59.865,0,0,1,4.289,18.727,101.451,101.451,0,0,1-.9,22.084c-2.2,15.436-7.494,32.227-15.307,48.557A189.657,189.657,0,0,1,627.2,942.477a140.166,140.166,0,0,1-19.041,17.607,101.986,101.986,0,0,1-21.078,12.481C574.305,978.076,558.194,980.99,540.492,980.99Z" transform="translate(-242.151 -655.368)" fill="aqua"/>
      <path id="Path_758" data-name="Path 758" d="M582.453,718.186h-.014a133.445,133.445,0,0,0-15.386.93c-5.138.6-10.49,1.5-15.91,2.677a219,219,0,0,0-32.564,9.941,295.627,295.627,0,0,0-62.3,33.669,270.513,270.513,0,0,0-26.419,21.133,193.605,193.605,0,0,0-21.047,22.275A110.151,110.151,0,0,0,394.8,830.947a63.961,63.961,0,0,0-3.843,10.622,43.823,43.823,0,0,0-1.448,10.115,63.231,63.231,0,0,0,.258,6.964,61.21,61.21,0,0,0,2.711,13.186,63.629,63.629,0,0,0,2.376,6.21c.888,2,1.9,4,3.005,5.948,1.089,1.914,2.3,3.825,3.6,5.68a83.018,83.018,0,0,0,8.805,10.539,111.336,111.336,0,0,0,22.594,17.429,155.875,155.875,0,0,0,27.622,12.8,186.15,186.15,0,0,0,30.336,7.889,181.287,181.287,0,0,0,30.74,2.694,145.639,145.639,0,0,0,25.426-2.136,101.451,101.451,0,0,0,22.419-6.545,96.805,96.805,0,0,0,11.116-5.713,114.258,114.258,0,0,0,10.644-7.219,144.179,144.179,0,0,0,19.609-18.224A183.288,183.288,0,0,0,627.7,879.121a204.866,204.866,0,0,0,13.726-24.449c8.022-16.9,13.449-34.282,15.695-50.272a105.906,105.906,0,0,0,.89-22.937,62.871,62.871,0,0,0-4.484-19.551,81.117,81.117,0,0,0-5.582-10.872,69.915,69.915,0,0,0-6.727-9.179,63.959,63.959,0,0,0-16.49-13.57,68.934,68.934,0,0,0-9.56-4.54,77.868,77.868,0,0,0-10.3-3.145,91.13,91.13,0,0,0-10.942-1.829A108.694,108.694,0,0,0,582.453,718.186ZM521.55,940.3a180.561,180.561,0,0,1-30.617-2.684,185.436,185.436,0,0,1-30.218-7.858c-20.478-7.246-37.748-17.637-49.941-30.051a74.828,74.828,0,0,1-15.26-21.953,62.885,62.885,0,0,1-2.349-6.139,60.484,60.484,0,0,1-2.679-13.03,62.52,62.52,0,0,1-.255-6.884c.112-6.26,1.87-13.14,5.225-20.448a109.437,109.437,0,0,1,13.921-21.989c11.7-14.727,28.06-29.689,47.316-43.267a294.9,294.9,0,0,1,62.149-33.586A218.273,218.273,0,0,1,551.3,722.5a147.862,147.862,0,0,1,31.143-3.591h.014c16.258,0,30.358,3.367,41.912,10.008,12.624,7.257,22.211,18.453,28.494,33.278a62.159,62.159,0,0,1,4.429,19.326A105.177,105.177,0,0,1,656.4,804.3c-2.235,15.919-7.64,33.23-15.632,50.063A194.91,194.91,0,0,1,610.228,900.7a143.464,143.464,0,0,1-19.51,18.133,104.124,104.124,0,0,1-21.609,12.843C556.064,937.315,539.619,940.3,521.55,940.3Z" transform="translate(-222.96 -614.82)" fill="aqua"/>
      <path id="Path_759" data-name="Path 759" d="M592.432,670.936h-.008a134.688,134.688,0,0,0-15.659.954c-5.226.615-10.669,1.539-16.177,2.747a220,220,0,0,0-33.074,10.2,296.971,296.971,0,0,0-63.168,34.578A272.7,272.7,0,0,0,437.6,741.138a196.241,196.241,0,0,0-21.276,22.911A112.759,112.759,0,0,0,402.2,786.84a66.235,66.235,0,0,0-3.856,10.946,45.8,45.8,0,0,0-1.427,10.432,66.394,66.394,0,0,0,.3,7.314,64.443,64.443,0,0,0,2.906,13.846,67.125,67.125,0,0,0,2.522,6.519c.941,2.1,2.01,4.2,3.179,6.241,1.15,2.008,2.427,4.013,3.8,5.958a87.514,87.514,0,0,0,9.273,11.045,116.354,116.354,0,0,0,23.225,17.932,160.362,160.362,0,0,0,28.235,13.179,188.853,188.853,0,0,0,30.9,8.131,181.768,181.768,0,0,0,31.232,2.779A145.077,145.077,0,0,0,558.01,899a101.211,101.211,0,0,0,22.5-6.62,97.117,97.117,0,0,0,11.3-5.863,115.026,115.026,0,0,0,10.812-7.423,146.027,146.027,0,0,0,19.9-18.769,187.149,187.149,0,0,0,17.158-22.75,210.709,210.709,0,0,0,13.882-25.233c8.1-17.445,13.56-35.4,15.781-51.933a111.1,111.1,0,0,0,.812-23.719,66.191,66.191,0,0,0-4.648-20.236,85.152,85.152,0,0,0-5.763-11.319,73.046,73.046,0,0,0-6.934-9.556,67.1,67.1,0,0,0-8-7.868,66.415,66.415,0,0,0-8.966-6.257C623.846,674.475,609.241,670.936,592.432,670.936Zm-59.945,229.5a181.058,181.058,0,0,1-31.107-2.768,188.132,188.132,0,0,1-30.784-8.1c-20.884-7.462-38.584-18.161-51.188-30.938a78.96,78.96,0,0,1-16.1-23.032,64.355,64.355,0,0,1-5.667-27.374c.088-6.465,1.845-13.561,5.22-21.092A112.043,112.043,0,0,1,416.9,764.494c11.813-15.153,28.365-30.537,47.868-44.489a296.238,296.238,0,0,1,63.011-34.493,219.279,219.279,0,0,1,32.965-10.169,149.02,149.02,0,0,1,31.682-3.683h.007c16.681,0,31.161,3.505,43.043,10.42,12.988,7.558,22.867,19.218,29.363,34.656a65.478,65.478,0,0,1,4.594,20.015,110.374,110.374,0,0,1-.808,23.563c-2.212,16.459-7.647,34.345-15.72,51.725a199.729,199.729,0,0,1-30.925,47.808,145.3,145.3,0,0,1-19.8,18.677,104.611,104.611,0,0,1-21.958,13.2,100.488,100.488,0,0,1-22.337,6.572A144.355,144.355,0,0,1,532.487,900.439Z" transform="translate(-236.206 -574.374)" fill="aqua"/>
      <path id="Path_760" data-name="Path 760" d="M579.618,631.188h-.013a138.89,138.89,0,0,0-16.113.98c-5.379.632-10.982,1.582-16.653,2.822a227.173,227.173,0,0,0-34.061,10.482A306.665,306.665,0,0,0,447.689,681a281.357,281.357,0,0,0-27.564,22.31,202.152,202.152,0,0,0-21.933,23.524,115.832,115.832,0,0,0-14.567,23.383,67.8,67.8,0,0,0-3.977,11.219,51.127,51.127,0,0,0-1.065,5.418,42.943,42.943,0,0,0-.412,5.263,67.785,67.785,0,0,0,.3,7.465,65.741,65.741,0,0,0,2.953,14.131,68.462,68.462,0,0,0,2.568,6.654c.958,2.144,2.048,4.288,3.24,6.372,1.173,2.05,2.475,4.1,3.87,6.084a89.277,89.277,0,0,0,9.463,11.283,119,119,0,0,0,23.84,18.4,164.647,164.647,0,0,0,29.028,13.526,194.532,194.532,0,0,0,31.8,8.344,187.755,187.755,0,0,0,32.158,2.851A150.024,150.024,0,0,0,543.741,865a104.6,104.6,0,0,0,23.218-6.819,100.193,100.193,0,0,0,11.626-6.019,118.666,118.666,0,0,0,11.128-7.618A150.433,150.433,0,0,0,610.2,825.279a192.464,192.464,0,0,0,17.677-23.344,216.337,216.337,0,0,0,14.309-25.888c8.354-17.9,13.986-36.316,16.287-53.266a113.5,113.5,0,0,0,.859-24.311,67.524,67.524,0,0,0-4.756-20.721,86.948,86.948,0,0,0-5.907-11.581,74.649,74.649,0,0,0-7.108-9.774,67.746,67.746,0,0,0-17.4-14.446,72.432,72.432,0,0,0-10.078-4.833,81.5,81.5,0,0,0-10.856-3.349,95.165,95.165,0,0,0-11.529-1.947A113.287,113.287,0,0,0,579.618,631.188ZM517.394,866.74a187.259,187.259,0,0,1-32.075-2.844,194.015,194.015,0,0,1-31.721-8.323c-21.518-7.672-39.737-18.672-52.687-31.812a80.787,80.787,0,0,1-16.476-23.6,65.9,65.9,0,0,1-5.78-28.046c.1-6.654,1.917-13.958,5.41-21.708a115.358,115.358,0,0,1,14.507-23.284c12.2-15.577,29.277-31.393,49.4-45.738a306.177,306.177,0,0,1,64.985-35.468,226.693,226.693,0,0,1,33.988-10.46,153.966,153.966,0,0,1,32.663-3.791h.014c17.171,0,32.077,3.6,44.3,10.693,13.369,7.758,23.534,19.727,30.211,35.572a67.043,67.043,0,0,1,4.72,20.573A113.012,113.012,0,0,1,658,722.715c-2.295,16.9-7.913,35.275-16.246,53.127a205.5,205.5,0,0,1-31.909,49.116,149.928,149.928,0,0,1-20.425,19.2,108.194,108.194,0,0,1-22.652,13.577C553.222,863.626,536.149,866.74,517.394,866.74Z" transform="translate(-222.74 -540.301)" fill="aqua"/>
      <path id="Path_761" data-name="Path 761" d="M566.557,590.238h0a143.576,143.576,0,0,0-16.618,1.007c-5.549.65-11.329,1.626-17.18,2.9a235.223,235.223,0,0,0-35.153,10.78,317.558,317.558,0,0,0-67.214,36.532A291.047,291.047,0,0,0,401.911,664.4a208.774,208.774,0,0,0-22.67,24.181,119.244,119.244,0,0,0-15.068,24.028,69.549,69.549,0,0,0-4.12,11.524,52.341,52.341,0,0,0-1.106,5.564,43.882,43.882,0,0,0-.432,5.4,69.23,69.23,0,0,0,.3,7.62,67.054,67.054,0,0,0,2.995,14.427,69.76,69.76,0,0,0,2.613,6.794c.975,2.189,2.086,4.379,3.3,6.507,1.195,2.094,2.522,4.185,3.945,6.214a91.043,91.043,0,0,0,9.653,11.527,121.685,121.685,0,0,0,24.51,18.914,169.223,169.223,0,0,0,29.9,13.9,200.819,200.819,0,0,0,32.79,8.572A194.534,194.534,0,0,0,501.7,832.5a155.778,155.778,0,0,0,27.291-2.3,108.551,108.551,0,0,0,24.051-7.046,103.827,103.827,0,0,0,11.994-6.191,122.8,122.8,0,0,0,11.484-7.831,155.387,155.387,0,0,0,21.153-19.79,198.309,198.309,0,0,0,18.257-23.976,222.379,222.379,0,0,0,14.788-26.582c8.637-18.374,14.469-37.281,16.864-54.676a115.924,115.924,0,0,0,.918-24.945,79.334,79.334,0,0,0-1.676-11.187,60.4,60.4,0,0,0-3.2-10.067,88.763,88.763,0,0,0-6.064-11.855,76.319,76.319,0,0,0-7.3-10.006,69.517,69.517,0,0,0-17.881-14.79,74.6,74.6,0,0,0-10.362-4.948,84.063,84.063,0,0,0-11.163-3.429A98.312,98.312,0,0,0,579,590.884,117.116,117.116,0,0,0,566.557,590.238ZM501.7,832.017a194.056,194.056,0,0,1-33.1-2.921,200.342,200.342,0,0,1-32.711-8.551c-22.183-7.884-40.934-19.19-54.227-32.7a82.384,82.384,0,0,1-16.8-24.106A69.292,69.292,0,0,1,362.266,757a66.572,66.572,0,0,1-2.973-14.323,68.7,68.7,0,0,1-.3-7.567c.109-6.833,2-14.336,5.615-22.3a118.781,118.781,0,0,1,15.007-23.929c12.612-16.012,30.264-32.273,51.048-47.024a317.067,317.067,0,0,1,67.11-36.476,234.74,234.74,0,0,1,35.081-10.758,159.289,159.289,0,0,1,33.7-3.9c17.671,0,33.008,3.685,45.584,10.954,13.746,7.945,24.19,20.2,31.043,36.422a68.4,68.4,0,0,1,4.84,21.1,115.438,115.438,0,0,1-.915,24.841c-2.388,17.348-8.206,36.206-16.823,54.537a211.519,211.519,0,0,1-32.968,50.442,154.907,154.907,0,0,1-21.086,19.729,112.051,112.051,0,0,1-23.376,13.962C538.822,828.8,521.134,832.017,501.7,832.017Z" transform="translate(-209.075 -505.248)" fill="aqua"/>
      <path id="Path_762" data-name="Path 762" d="M570.88,578.525h-.013a145.981,145.981,0,0,0-16.9,1.026c-5.644.662-11.524,1.656-17.475,2.954a239.11,239.11,0,0,0-35.754,10.973,322.81,322.81,0,0,0-68.356,37.185,295.929,295.929,0,0,0-28.959,23.348,212.323,212.323,0,0,0-23.05,24.614,121.343,121.343,0,0,0-15.318,24.459,70.825,70.825,0,0,0-4.187,11.731,53.322,53.322,0,0,0-1.124,5.664,44.691,44.691,0,0,0-.438,5.5,70.57,70.57,0,0,0,.305,7.768,68.37,68.37,0,0,0,3.057,14.705,71.139,71.139,0,0,0,2.665,6.925c.995,2.231,2.127,4.463,3.365,6.632,1.218,2.134,2.572,4.265,4.022,6.333,1.428,2.035,2.987,4.064,4.635,6.029,1.623,1.935,3.374,3.859,5.206,5.719a124,124,0,0,0,24.948,19.253,172.263,172.263,0,0,0,30.422,14.149,204.239,204.239,0,0,0,33.357,8.727A197.7,197.7,0,0,0,505.04,825.2a158.25,158.25,0,0,0,27.736-2.339,110.268,110.268,0,0,0,24.443-7.164,105.511,105.511,0,0,0,12.2-6.3,124.786,124.786,0,0,0,11.68-7.971,158.02,158.02,0,0,0,21.514-20.147,201.763,201.763,0,0,0,18.567-24.41A226.371,226.371,0,0,0,636.216,729.8c8.782-18.708,14.71-37.96,17.141-55.673a118.154,118.154,0,0,0,.926-25.4,80.865,80.865,0,0,0-1.709-11.391,61.575,61.575,0,0,0-3.258-10.251,90.509,90.509,0,0,0-6.174-12.078,77.815,77.815,0,0,0-7.432-10.194,70.778,70.778,0,0,0-18.2-15.067,75.862,75.862,0,0,0-10.546-5.041,85.511,85.511,0,0,0-11.362-3.493,99.924,99.924,0,0,0-12.068-2.031A119.052,119.052,0,0,0,570.88,578.525ZM505.04,824.72a197.2,197.2,0,0,1-33.671-2.974,203.754,203.754,0,0,1-33.278-8.706c-22.569-8.026-41.653-19.536-55.189-33.286a84.009,84.009,0,0,1-17.132-24.572,70.678,70.678,0,0,1-2.647-6.878,67.879,67.879,0,0,1-3.036-14.6,70.06,70.06,0,0,1-.3-7.714c.109-6.958,2.028-14.6,5.7-22.7a120.865,120.865,0,0,1,15.258-24.36c12.823-16.3,30.773-32.851,51.91-47.867a322.314,322.314,0,0,1,68.252-37.128,238.619,238.619,0,0,1,35.682-10.951,161.96,161.96,0,0,1,34.277-3.969h.013c17.982,0,33.589,3.754,46.387,11.157,13.992,8.094,24.625,20.58,31.6,37.111a69.735,69.735,0,0,1,4.931,21.494,117.661,117.661,0,0,1-.923,25.3c-2.425,17.666-8.338,36.869-17.1,55.534a215.258,215.258,0,0,1-33.527,51.359,157.523,157.523,0,0,1-21.448,20.085,113.9,113.9,0,0,1-23.778,14.213C542.766,821.447,524.789,824.72,505.04,824.72Z" transform="translate(-214.978 -495.222)" fill="aqua"/>
      <path id="Path_763" data-name="Path 763" d="M557.668,556.071h-.017a151.031,151.031,0,0,0-17.445,1.057c-5.825.682-11.894,1.705-18.039,3.043a247.6,247.6,0,0,0-36.919,11.3,334.288,334.288,0,0,0-70.615,38.285A306.164,306.164,0,0,0,384.7,633.79a219.359,219.359,0,0,0-23.831,25.331,125.035,125.035,0,0,0-15.846,25.165,72.741,72.741,0,0,0-4.336,12.066,54.7,54.7,0,0,0-1.167,5.825,45.8,45.8,0,0,0-.458,5.656,72.206,72.206,0,0,0,.3,7.949,69.92,69.92,0,0,0,3.112,15.05,72.738,72.738,0,0,0,2.72,7.088c1.016,2.284,2.172,4.568,3.438,6.789,1.245,2.185,2.628,4.367,4.111,6.484,1.459,2.084,3.054,4.161,4.74,6.173,1.66,1.981,3.451,3.952,5.325,5.857a127.078,127.078,0,0,0,25.678,19.812,177.262,177.262,0,0,0,31.359,14.556,210.96,210.96,0,0,0,34.416,8.976,204.823,204.823,0,0,0,34.85,3.066,164.225,164.225,0,0,0,28.728-2.419,114.385,114.385,0,0,0,25.318-7.406,109.324,109.324,0,0,0,12.593-6.489,129.215,129.215,0,0,0,12.059-8.2,163.3,163.3,0,0,0,22.218-20.727,208.059,208.059,0,0,0,19.182-25.1,232.983,232.983,0,0,0,15.544-27.829c9.081-19.234,15.218-39.024,17.746-57.229a120.961,120.961,0,0,0,.984-26.1,82.7,82.7,0,0,0-1.75-11.7,62.969,62.969,0,0,0-3.35-10.53,92.628,92.628,0,0,0-6.347-12.391,79.72,79.72,0,0,0-7.644-10.458,72.723,72.723,0,0,0-18.727-15.457,78.167,78.167,0,0,0-10.855-5.171,88.212,88.212,0,0,0-11.7-3.583,103.193,103.193,0,0,0-12.426-2.084A123.034,123.034,0,0,0,557.668,556.071Zm-68.55,253.08a204.333,204.333,0,0,1-34.768-3.059,210.473,210.473,0,0,1-34.337-8.955c-23.281-8.258-42.941-20.1-56.855-34.251a85.894,85.894,0,0,1-17.516-25.161,72.259,72.259,0,0,1-2.7-7.041,69.434,69.434,0,0,1-3.09-14.947,71.7,71.7,0,0,1-.3-7.9c.12-7.155,2.111-15.012,5.917-23.354a124.553,124.553,0,0,1,15.785-25.066c13.262-16.775,31.817-33.812,53.66-49.271a333.8,333.8,0,0,1,70.512-38.23,247.152,247.152,0,0,1,36.846-11.278,167.6,167.6,0,0,1,35.381-4.089h.017c18.521,0,34.59,3.851,47.763,11.447,14.4,8.3,25.34,21.114,32.515,38.075a71.338,71.338,0,0,1,5.063,22.085,120.491,120.491,0,0,1-.981,26c-2.522,18.157-8.644,37.9-17.7,57.089a221.794,221.794,0,0,1-34.649,52.818,162.825,162.825,0,0,1-22.152,20.666,117.98,117.98,0,0,1-24.551,14.634C528.2,805.767,509.576,809.151,489.118,809.151Z" transform="translate(-201.271 -476.001)" fill="aqua"/>
      <path id="Path_764" data-name="Path 764" d="M582.355,490.23h-.02a166.112,166.112,0,0,0-19.188,1.163c-6.405.75-13.078,1.875-19.833,3.345a272.139,272.139,0,0,0-40.574,12.419,367.281,367.281,0,0,0-77.584,42.063,336.377,336.377,0,0,0-32.885,26.407,241.117,241.117,0,0,0-26.195,27.844,137.587,137.587,0,0,0-17.436,27.691,80.191,80.191,0,0,0-4.78,13.3,60.361,60.361,0,0,0-1.288,6.43,50.579,50.579,0,0,0-.506,6.25,79.583,79.583,0,0,0,.334,8.763,77.08,77.08,0,0,0,3.43,16.592,80.211,80.211,0,0,0,3,7.813c1.12,2.517,2.394,5.035,3.788,7.481,1.372,2.407,2.9,4.811,4.529,7.143,1.607,2.3,3.364,4.583,5.22,6.8,1.827,2.182,3.8,4.351,5.863,6.449a139.819,139.819,0,0,0,28.254,21.8,194.91,194.91,0,0,0,34.483,16.006,231.919,231.919,0,0,0,37.833,9.867c6.4,1.11,12.89,1.958,19.276,2.52,6.4.564,12.809.85,19.037.85a180.6,180.6,0,0,0,31.592-2.66,125.893,125.893,0,0,0,27.864-8.151,120.306,120.306,0,0,0,13.862-7.142,142.159,142.159,0,0,0,13.269-9.027c4.246-3.245,8.483-6.839,12.595-10.683,4.016-3.755,8-7.829,11.84-12.111a228.724,228.724,0,0,0,21.087-27.6A256.084,256.084,0,0,0,656.3,661.268c9.983-21.144,16.729-42.9,19.509-62.917a133.1,133.1,0,0,0,1.082-28.726,91.083,91.083,0,0,0-1.929-12.895,69.46,69.46,0,0,0-3.7-11.615c-1.029-2.432-2.142-4.818-3.309-7.094-1.154-2.251-2.393-4.455-3.682-6.552-1.275-2.074-2.634-4.1-4.04-6.021-1.391-1.9-2.865-3.752-4.383-5.5-1.5-1.731-3.086-3.411-4.71-4.993-1.606-1.565-3.3-3.078-5.021-4.5-1.706-1.4-3.495-2.752-5.316-4.011-1.8-1.244-3.683-2.434-5.595-3.537a86.135,86.135,0,0,0-11.962-5.7,97.147,97.147,0,0,0-12.884-3.947,113.637,113.637,0,0,0-13.68-2.294A135.4,135.4,0,0,0,582.355,490.23ZM507.111,768.022A223.969,223.969,0,0,1,469,764.669a230.7,230.7,0,0,1-37.636-9.816c-25.508-9.048-47.044-22.02-62.281-37.516A93.937,93.937,0,0,1,349.93,689.82a78.946,78.946,0,0,1-2.953-7.7,75.874,75.874,0,0,1-3.376-16.333,78.387,78.387,0,0,1-.329-8.63c.131-7.807,2.306-16.386,6.465-25.5a136.376,136.376,0,0,1,17.285-27.444c14.537-18.388,34.881-37.066,58.831-54.016a366.058,366.058,0,0,1,77.325-41.923,270.928,270.928,0,0,1,40.394-12.365,183.624,183.624,0,0,1,38.765-4.48h.02c20.269,0,37.85,4.212,52.257,12.52,1.884,1.086,3.738,2.258,5.512,3.484,1.794,1.24,3.555,2.569,5.236,3.95,1.7,1.4,3.363,2.887,4.945,4.429,1.6,1.559,3.161,3.214,4.64,4.92,1.5,1.725,2.95,3.55,4.321,5.424,1.387,1.9,2.728,3.894,3.986,5.941,1.273,2.07,2.5,4.247,3.636,6.471,1.153,2.249,2.254,4.609,3.271,7.013a77.96,77.96,0,0,1,5.533,24.137,131.913,131.913,0,0,1-1.074,28.464c-2.763,19.9-9.473,41.533-19.4,62.568a243.113,243.113,0,0,1-37.98,57.9,178.39,178.39,0,0,1-24.269,22.641,140.963,140.963,0,0,1-13.156,8.95,119.105,119.105,0,0,1-13.722,7.07C549.914,764.318,529.52,768.022,507.111,768.022Z" transform="translate(-234.994 -419.786)" fill="aqua"/>
      <path id="Path_765" data-name="Path 765" d="M556.893,447.719h-.021a172.373,172.373,0,0,0-19.915,1.207c-6.649.778-13.576,1.946-20.588,3.473a282.531,282.531,0,0,0-42.126,12.894,381.367,381.367,0,0,0-80.561,43.677,349.272,349.272,0,0,0-34.146,27.42A250.308,250.308,0,0,0,332.342,565.3a142.765,142.765,0,0,0-18.094,28.735c-1.07,2.346-2.028,4.689-2.848,6.965-.83,2.3-1.539,4.6-2.109,6.827a62.557,62.557,0,0,0-1.335,6.664,52.388,52.388,0,0,0-.524,6.474,82.5,82.5,0,0,0,.347,9.086,79.919,79.919,0,0,0,3.557,17.2,83.131,83.131,0,0,0,3.109,8.1c1.161,2.611,2.483,5.221,3.929,7.759,1.423,2.5,3,4.99,4.7,7.409,1.667,2.381,3.489,4.754,5.415,7.053,1.9,2.263,3.942,4.514,6.082,6.69a145.1,145.1,0,0,0,29.321,22.623A202.335,202.335,0,0,0,399.685,723.5a240.773,240.773,0,0,0,39.277,10.244c6.649,1.152,13.382,2.032,20.011,2.616,6.649.586,13.3.883,19.762.883a187.458,187.458,0,0,0,32.791-2.76,130.631,130.631,0,0,0,28.912-8.457,124.832,124.832,0,0,0,14.382-7.41,147.505,147.505,0,0,0,13.77-9.368c4.406-3.367,8.8-7.1,13.072-11.088,4.169-3.9,8.3-8.127,12.289-12.571a237.435,237.435,0,0,0,21.891-28.65,265.89,265.89,0,0,0,17.737-31.756c10.363-21.951,17.367-44.536,20.252-65.314a138.119,138.119,0,0,0,1.123-29.809,94.5,94.5,0,0,0-2-13.374,72,72,0,0,0-3.831-12.042c-1.067-2.523-2.222-5-3.432-7.359-1.2-2.335-2.483-4.622-3.819-6.8-1.322-2.151-2.732-4.252-4.19-6.245-1.442-1.971-2.972-3.891-4.545-5.706-1.557-1.795-3.2-3.537-4.884-5.178-1.666-1.623-3.417-3.191-5.207-4.663-1.769-1.455-3.624-2.854-5.513-4.159-1.867-1.29-3.819-2.524-5.8-3.667a89.347,89.347,0,0,0-12.405-5.91,100.767,100.767,0,0,0-13.365-4.094,117.884,117.884,0,0,0-14.193-2.38A140.51,140.51,0,0,0,556.893,447.719ZM478.735,736.282a232.8,232.8,0,0,1-39.609-3.485,239.8,239.8,0,0,1-39.119-10.2c-26.517-9.406-48.908-22.894-64.751-39.005a97.721,97.721,0,0,1-19.929-28.627,82.2,82.2,0,0,1-3.073-8.008,78.96,78.96,0,0,1-3.514-17,81.57,81.57,0,0,1-.343-8.98c.137-8.129,2.4-17.061,6.729-26.546A141.815,141.815,0,0,1,333.1,565.894c15.109-19.111,36.251-38.523,61.141-56.138a380.4,380.4,0,0,1,80.354-43.565,281.581,281.581,0,0,1,41.981-12.85c6.982-1.519,13.877-2.683,20.495-3.457a171.424,171.424,0,0,1,19.8-1.2h.02c21.08,0,39.367,4.382,54.356,13.024,1.96,1.13,3.89,2.35,5.735,3.625,1.867,1.29,3.7,2.673,5.448,4.11,1.768,1.454,3.5,3,5.146,4.608,1.665,1.622,3.29,3.345,4.829,5.119,1.557,1.8,3.069,3.694,4.5,5.643,1.443,1.972,2.838,4.052,4.147,6.181,1.324,2.154,2.6,4.418,3.783,6.731,1.2,2.339,2.344,4.794,3.4,7.295a81.137,81.137,0,0,1,5.759,25.118,137.171,137.171,0,0,1-1.117,29.6c-2.872,20.683-9.847,43.172-20.169,65.035a252.676,252.676,0,0,1-39.474,60.174A185.426,185.426,0,0,1,568,708.484a146.53,146.53,0,0,1-13.679,9.306,123.846,123.846,0,0,1-14.271,7.353,129.656,129.656,0,0,1-28.7,8.393A186.488,186.488,0,0,1,478.735,736.282Z" transform="translate(-208.128 -383.349)" fill="aqua"/>
      <path id="Path_766" data-name="Path 766" d="M565.989,420.876h-.021a175.114,175.114,0,0,0-20.227,1.226c-6.754.79-13.79,1.977-20.913,3.528a287.031,287.031,0,0,0-42.8,13.1,387.5,387.5,0,0,0-81.854,44.379,354.911,354.911,0,0,0-34.694,27.859,254.311,254.311,0,0,0-27.627,29.366,145,145,0,0,0-18.375,29.18c-1.086,2.381-2.059,4.76-2.891,7.07-.842,2.339-1.562,4.669-2.14,6.927a63.438,63.438,0,0,0-1.354,6.759,53.142,53.142,0,0,0-.532,6.565,83.727,83.727,0,0,0,.351,9.221,81.089,81.089,0,0,0,3.608,17.458,84.367,84.367,0,0,0,3.155,8.222c1.178,2.649,2.52,5.3,3.987,7.874,1.444,2.534,3.048,5.065,4.768,7.52,1.693,2.417,3.542,4.826,5.5,7.16,1.925,2.3,4,4.583,6.175,6.793a147.354,147.354,0,0,0,29.776,22.975,205.525,205.525,0,0,0,36.359,16.878,244.568,244.568,0,0,0,39.9,10.408c6.754,1.17,13.594,2.065,20.328,2.658,6.754.6,13.508.9,20.075.9a190.4,190.4,0,0,0,33.31-2.8,132.616,132.616,0,0,0,29.359-8.59,126.764,126.764,0,0,0,14.6-7.525,149.806,149.806,0,0,0,13.984-9.514c4.475-3.42,8.942-7.209,13.277-11.262,4.234-3.959,8.434-8.255,12.483-12.77a241.229,241.229,0,0,0,22.239-29.1,270.1,270.1,0,0,0,18.02-32.262c10.528-22.3,17.643-45.241,20.574-66.347a140.257,140.257,0,0,0,1.14-30.269,95.924,95.924,0,0,0-2.03-13.576,73.055,73.055,0,0,0-3.887-12.218c-1.083-2.561-2.256-5.075-3.485-7.471-1.216-2.37-2.52-4.692-3.877-6.9-1.342-2.184-2.773-4.316-4.253-6.339-1.464-2-3.016-3.949-4.613-5.791-1.58-1.822-3.247-3.59-4.957-5.255-1.69-1.647-3.468-3.239-5.284-4.732-1.8-1.476-3.678-2.9-5.594-4.221-1.895-1.31-3.876-2.562-5.888-3.722a90.67,90.67,0,0,0-12.591-6,102.285,102.285,0,0,0-13.566-4.156,119.7,119.7,0,0,0-14.411-2.417A142.694,142.694,0,0,0,565.989,420.876Zm-79.448,293.3a236.7,236.7,0,0,1-40.28-3.545,243.85,243.85,0,0,1-39.782-10.377c-26.97-9.568-49.745-23.288-65.861-39.679a99.451,99.451,0,0,1-20.281-29.134,83.66,83.66,0,0,1-3.128-8.151,80.372,80.372,0,0,1-3.576-17.3,83,83,0,0,1-.348-9.141c.14-8.28,2.445-17.375,6.852-27.033a144.281,144.281,0,0,1,18.285-29.032c15.365-19.434,36.864-39.173,62.171-57.084a386.78,386.78,0,0,1,81.7-44.3,286.325,286.325,0,0,1,42.689-13.067c7.1-1.545,14.113-2.728,20.843-3.516a174.373,174.373,0,0,1,20.143-1.221h.021c21.449,0,40.057,4.459,55.311,13.255,2,1.15,3.959,2.392,5.838,3.69,1.9,1.313,3.766,2.721,5.546,4.184,1.8,1.48,3.563,3.059,5.239,4.691,1.7,1.651,3.349,3.4,4.915,5.211,1.584,1.827,3.124,3.76,4.576,5.744,1.469,2.007,2.889,4.124,4.221,6.291,1.347,2.192,2.643,4.5,3.85,6.85,1.221,2.381,2.386,4.878,3.462,7.423a82.593,82.593,0,0,1,5.863,25.57,139.543,139.543,0,0,1-1.136,30.112c-2.921,21.035-10.014,43.9-20.512,66.138a256.966,256.966,0,0,1-40.143,61.192,188.638,188.638,0,0,1-25.661,23.94,149.11,149.11,0,0,1-13.916,9.468,126.051,126.051,0,0,1-14.52,7.482,131.91,131.91,0,0,1-29.2,8.542A189.686,189.686,0,0,1,486.541,714.175Z" transform="translate(-219.497 -360.322)" fill="aqua"/>
      <path id="Path_767" data-name="Path 767" d="M578.066,502.336h-.017a163.329,163.329,0,0,0-18.866,1.143c-6.3.737-12.86,1.844-19.5,3.289a267.625,267.625,0,0,0-39.905,12.214,361.253,361.253,0,0,0-76.312,41.374,330.875,330.875,0,0,0-32.345,25.975,237.108,237.108,0,0,0-25.761,27.385,135.263,135.263,0,0,0-17.142,27.224,78.8,78.8,0,0,0-4.7,13.069,59.27,59.27,0,0,0-1.265,6.315,49.672,49.672,0,0,0-.5,6.136,78.221,78.221,0,0,0,.328,8.61,75.74,75.74,0,0,0,3.37,16.3,78.8,78.8,0,0,0,2.946,7.677c1.1,2.474,2.353,4.947,3.722,7.352,1.348,2.366,2.845,4.728,4.451,7.02,1.58,2.256,3.306,4.5,5.131,6.683,1.8,2.144,3.735,4.277,5.763,6.339a137.47,137.47,0,0,0,27.777,21.432,191.663,191.663,0,0,0,33.907,15.739,228.049,228.049,0,0,0,37.2,9.7c6.3,1.091,12.675,1.925,18.955,2.479,6.3.555,12.6.836,18.719.836a177.584,177.584,0,0,0,31.068-2.615A123.762,123.762,0,0,0,562.491,766a118.266,118.266,0,0,0,13.626-7.021,139.773,139.773,0,0,0,13.045-8.875c4.174-3.19,8.341-6.725,12.384-10.5,3.949-3.692,7.866-7.7,11.642-11.909a224.929,224.929,0,0,0,20.738-27.14,251.86,251.86,0,0,0,16.8-30.082c9.818-20.794,16.452-42.189,19.185-61.872a130.842,130.842,0,0,0,1.063-28.24,89.534,89.534,0,0,0-1.9-12.672,68.21,68.21,0,0,0-3.631-11.41c-1.011-2.39-2.105-4.736-3.252-6.973-1.134-2.212-2.352-4.379-3.619-6.439-1.253-2.038-2.589-4.029-3.97-5.917-1.367-1.868-2.815-3.687-4.307-5.406-1.475-1.7-3.032-3.352-4.628-4.907-1.578-1.538-3.238-3.024-4.933-4.418a79.3,79.3,0,0,0-10.721-7.416,84.662,84.662,0,0,0-11.754-5.6,95.481,95.481,0,0,0-12.662-3.879,111.669,111.669,0,0,0-13.447-2.255A133.1,133.1,0,0,0,578.066,502.336ZM504.029,775.668a220.455,220.455,0,0,1-37.51-3.3,227.091,227.091,0,0,1-37.047-9.663c-25.111-8.908-46.315-21.681-61.318-36.939a92.548,92.548,0,0,1-18.873-27.109,77.838,77.838,0,0,1-2.91-7.583,74.753,74.753,0,0,1-3.327-16.1,77.19,77.19,0,0,1-.324-8.5c.129-7.7,2.273-16.154,6.371-25.136a134.31,134.31,0,0,1,17.021-27.027c14.31-18.1,34.334-36.487,57.907-53.17a360.275,360.275,0,0,1,76.105-41.262,266.674,266.674,0,0,1,39.761-12.17,180.781,180.781,0,0,1,38.165-4.41h.017c19.965,0,37.282,4.149,51.476,12.334,15.511,8.944,27.294,22.744,35.024,41.016a76.821,76.821,0,0,1,5.453,23.784,129.873,129.873,0,0,1-1.057,28.03c-2.72,19.588-9.326,40.887-19.1,61.593a239.323,239.323,0,0,1-37.387,56.991,175.647,175.647,0,0,1-23.894,22.292,138.848,138.848,0,0,1-12.955,8.814,117.335,117.335,0,0,1-13.515,6.964,122.792,122.792,0,0,1-27.18,7.95A176.621,176.621,0,0,1,504.029,775.668Z" transform="translate(-229.077 -430.101)" fill="aqua"/>
      <path id="Path_768" data-name="Path 768" d="M572.76,517.025h-.018a159.965,159.965,0,0,0-18.478,1.12c-6.17.722-12.6,1.806-19.1,3.222a262.2,262.2,0,0,0-39.094,11.966A353.953,353.953,0,0,0,421.3,573.87a324.152,324.152,0,0,0-31.69,25.448,232.291,232.291,0,0,0-25.237,26.825A132.457,132.457,0,0,0,347.583,652.8a77.108,77.108,0,0,0-4.6,12.789,57.979,57.979,0,0,0-1.237,6.177,48.577,48.577,0,0,0-.486,6,76.5,76.5,0,0,0,.322,8.426,74.1,74.1,0,0,0,3.3,15.953,77.062,77.062,0,0,0,2.883,7.513c1.077,2.421,2.3,4.842,3.643,7.2,1.319,2.316,2.785,4.628,4.356,6.871,1.546,2.208,3.236,4.409,5.022,6.541,1.759,2.1,3.657,4.187,5.642,6.206a134.618,134.618,0,0,0,27.2,20.988,187.743,187.743,0,0,0,33.213,15.416,223.423,223.423,0,0,0,36.447,9.506c6.17,1.069,12.418,1.886,18.57,2.428,6.17.544,12.339.819,18.338.819a173.943,173.943,0,0,0,30.426-2.561,121.19,121.19,0,0,0,26.822-7.845,115.791,115.791,0,0,0,13.342-6.874,136.843,136.843,0,0,0,12.775-8.691c4.089-3.125,8.169-6.586,12.129-10.288,3.868-3.616,7.7-7.541,11.4-11.665a220.345,220.345,0,0,0,20.315-26.587,246.721,246.721,0,0,0,16.46-29.471c9.617-20.37,16.116-41.328,18.794-60.609a128.132,128.132,0,0,0,1.042-27.653,87.618,87.618,0,0,0-1.855-12.4,66.729,66.729,0,0,0-3.552-11.163c-.99-2.34-2.061-4.637-3.184-6.826-1.111-2.166-2.3-4.286-3.542-6.3-1.226-1.995-2.534-3.944-3.886-5.792-1.337-1.828-2.756-3.608-4.215-5.291-1.443-1.665-2.967-3.28-4.529-4.8-1.544-1.5-3.169-2.96-4.828-4.324a77.6,77.6,0,0,0-10.492-7.257,82.86,82.86,0,0,0-11.5-5.48,93.459,93.459,0,0,0-12.4-3.8,109.342,109.342,0,0,0-13.166-2.208A130.358,130.358,0,0,0,572.76,517.025ZM500.2,784.907a216.218,216.218,0,0,1-36.784-3.236,222.7,222.7,0,0,1-36.329-9.475c-24.629-8.736-45.425-21.264-60.142-36.23a90.806,90.806,0,0,1-18.518-26.6,76.424,76.424,0,0,1-2.856-7.442,73.385,73.385,0,0,1-3.266-15.8,75.794,75.794,0,0,1-.318-8.346c.127-7.558,2.231-15.862,6.254-24.678a131.737,131.737,0,0,1,16.7-26.51c14.031-17.748,33.665-35.774,56.778-52.132a353.221,353.221,0,0,1,74.614-40.453,261.493,261.493,0,0,1,38.986-11.933,177.289,177.289,0,0,1,37.428-4.326h.019c19.585,0,36.576,4.072,50.5,12.1,15.222,8.778,26.786,22.32,34.372,40.251a75.39,75.39,0,0,1,5.353,23.342,127.414,127.414,0,0,1-1.037,27.5c-2.668,19.209-9.145,40.095-18.731,60.4a234.66,234.66,0,0,1-36.66,55.883,172.229,172.229,0,0,1-23.433,21.861,136.137,136.137,0,0,1-12.707,8.645,115.071,115.071,0,0,1-13.258,6.831C541.537,781.329,521.84,784.907,500.2,784.907Z" transform="translate(-221.776 -442.626)" fill="aqua"/>
      <path id="Path_769" data-name="Path 769" d="M543.038,355.183h-.022c-3.367,0-6.845.109-10.338.322-3.444.21-6.993.528-10.55.944-6.975.816-14.241,2.042-21.6,3.643a296.447,296.447,0,0,0-44.2,13.528A400.178,400.178,0,0,0,371.8,419.45a366.485,366.485,0,0,0-35.829,28.771,262.586,262.586,0,0,0-28.53,30.327,149.709,149.709,0,0,0-18.974,30.134c-1.122,2.459-2.126,4.915-2.985,7.3-.869,2.415-1.613,4.822-2.209,7.153a65.525,65.525,0,0,0-1.4,6.979,54.855,54.855,0,0,0-.548,6.778,86.493,86.493,0,0,0,.364,9.523,83.759,83.759,0,0,0,3.728,18.029,87.145,87.145,0,0,0,3.259,8.491c1.217,2.736,2.6,5.472,4.118,8.132,1.491,2.617,3.148,5.23,4.924,7.766,1.748,2.5,3.658,4.984,5.677,7.394,1.988,2.373,4.134,4.733,6.377,7.015a152.175,152.175,0,0,0,30.749,23.723,212.237,212.237,0,0,0,37.546,17.428c6.588,2.337,13.431,4.434,20.341,6.233,6.845,1.782,13.864,3.3,20.863,4.513,6.975,1.208,14.038,2.132,20.993,2.745,6.975.614,13.95.926,20.731.926a196.636,196.636,0,0,0,34.4-2.9,136.98,136.98,0,0,0,30.317-8.868,130.888,130.888,0,0,0,15.081-7.77,154.7,154.7,0,0,0,14.441-9.824c4.622-3.532,9.235-7.445,13.711-11.63,4.373-4.088,8.71-8.525,12.892-13.187A249.1,249.1,0,0,0,604.8,574.58a278.924,278.924,0,0,0,18.609-33.318c10.873-23.029,18.22-46.722,21.247-68.519a144.841,144.841,0,0,0,1.177-31.259,99.056,99.056,0,0,0-2.1-14.019,75.436,75.436,0,0,0-4.014-12.616c-1.119-2.645-2.33-5.241-3.6-7.715-1.255-2.448-2.6-4.845-4-7.124-1.386-2.255-2.864-4.457-4.392-6.546-1.512-2.066-3.114-4.078-4.764-5.98-1.631-1.881-3.354-3.707-5.119-5.427-1.746-1.7-3.581-3.345-5.456-4.886-1.854-1.524-3.8-2.991-5.777-4.358-1.957-1.352-4-2.645-6.08-3.843-2.054-1.184-4.2-2.309-6.367-3.341-2.146-1.021-4.378-1.981-6.635-2.852a105.64,105.64,0,0,0-14.01-4.291,123.62,123.62,0,0,0-14.882-2.5A147.351,147.351,0,0,0,543.038,355.183Zm-82.043,302.9a244.5,244.5,0,0,1-41.6-3.66,251.843,251.843,0,0,1-41.085-10.715c-27.854-9.88-51.376-24.049-68.022-40.976a102.738,102.738,0,0,1-20.951-30.093,86.385,86.385,0,0,1-3.232-8.42,83.025,83.025,0,0,1-3.7-17.874,85.763,85.763,0,0,1-.361-9.443c.143-8.553,2.523-17.948,7.075-27.923A148.992,148.992,0,0,1,308.006,479c15.868-20.071,38.071-40.458,64.21-58.956a399.445,399.445,0,0,1,84.379-45.747,295.721,295.721,0,0,1,44.09-13.5c7.333-1.6,14.576-2.818,21.528-3.631,3.544-.415,7.08-.731,10.51-.94,3.478-.212,6.941-.32,10.294-.32h.021c22.154,0,41.375,4.606,57.13,13.691,2.061,1.188,4.09,2.471,6.031,3.812,1.963,1.356,3.89,2.811,5.729,4.322,1.859,1.529,3.68,3.159,5.411,4.846,1.751,1.706,3.459,3.517,5.077,5.383,1.637,1.887,3.227,3.884,4.727,5.933,1.517,2.073,2.984,4.259,4.36,6.5,1.392,2.264,2.729,4.644,3.976,7.076,1.261,2.459,2.464,5.038,3.576,7.667a85.3,85.3,0,0,1,6.056,26.411,144.134,144.134,0,0,1-1.173,31.1c-3.017,21.725-10.342,45.346-21.184,68.31a265.378,265.378,0,0,1-41.46,63.2,194.8,194.8,0,0,1-26.5,24.725,153.958,153.958,0,0,1-14.373,9.778,130.127,130.127,0,0,1-15,7.727,136.267,136.267,0,0,1-30.157,8.819A195.906,195.906,0,0,1,460.995,658.087Z" transform="translate(-195.312 -304.089)" fill="aqua"/>
      <path id="Path_770" data-name="Path 770" d="M519.55,287.349h-.021c-3.476,0-7.066.112-10.671.332-3.555.217-7.219.545-10.891.974-7.2.843-14.7,2.108-22.3,3.761a306.075,306.075,0,0,0-45.636,13.968,413.25,413.25,0,0,0-87.294,47.328,378.468,378.468,0,0,0-37,29.71,271.15,271.15,0,0,0-29.457,31.312,154.538,154.538,0,0,0-19.584,31.1c-1.157,2.536-2.193,5.07-3.079,7.531-.9,2.491-1.663,4.973-2.279,7.377a67.559,67.559,0,0,0-1.441,7.2,56.544,56.544,0,0,0-.566,6.985,89.178,89.178,0,0,0,.375,9.822,86.383,86.383,0,0,0,3.844,18.595,89.828,89.828,0,0,0,3.361,8.758c1.255,2.822,2.684,5.645,4.247,8.388,1.538,2.7,3.247,5.4,5.079,8.012,1.8,2.575,3.774,5.142,5.857,7.628,2.051,2.448,4.265,4.884,6.58,7.238a157.06,157.06,0,0,0,31.737,24.486,219.115,219.115,0,0,0,38.763,17.993c6.8,2.413,13.867,4.578,21,6.435,7.068,1.84,14.315,3.408,21.541,4.66,7.2,1.248,14.494,2.2,21.675,2.834,7.2.634,14.4.956,21.4.956a202.983,202.983,0,0,0,35.507-2.989,141.362,141.362,0,0,0,31.288-9.151,135.055,135.055,0,0,0,15.563-8.018,159.692,159.692,0,0,0,14.9-10.14c4.771-3.646,9.533-7.685,14.153-12,4.514-4.22,8.992-8.8,13.309-13.614a257.2,257.2,0,0,0,23.712-31.032,288.013,288.013,0,0,0,19.214-34.4c11.226-23.776,18.811-48.238,21.936-70.741a149.487,149.487,0,0,0,1.215-32.262,102.181,102.181,0,0,0-2.163-14.462A77.785,77.785,0,0,0,619.3,348.9c-1.155-2.729-2.4-5.408-3.713-7.961-1.3-2.526-2.685-5-4.131-7.35-1.43-2.326-2.954-4.6-4.531-6.753-1.559-2.131-3.213-4.207-4.914-6.169-1.683-1.94-3.459-3.824-5.28-5.6-1.8-1.754-3.694-3.45-5.628-5.04-1.912-1.572-3.917-3.085-5.959-4.5-2.018-1.395-4.129-2.729-6.272-3.964-2.119-1.222-4.328-2.381-6.567-3.447-2.213-1.053-4.516-2.043-6.845-2.943a109,109,0,0,0-14.454-4.428,127.56,127.56,0,0,0-15.356-2.575A152.078,152.078,0,0,0,519.55,287.349ZM434.8,600.249a252.718,252.718,0,0,1-43-3.783,260.3,260.3,0,0,1-42.464-11.075c-28.793-10.213-53.108-24.862-70.317-42.362A106.244,106.244,0,0,1,257.355,511.9a89.412,89.412,0,0,1-3.343-8.711A85.91,85.91,0,0,1,250.19,484.7a88.715,88.715,0,0,1-.373-9.769c.149-8.854,2.612-18.576,7.322-28.9a154.055,154.055,0,0,1,19.524-31c16.4-20.744,39.345-41.812,66.356-60.928a412.759,412.759,0,0,1,87.19-47.272,305.593,305.593,0,0,1,45.564-13.947c7.579-1.65,15.065-2.912,22.25-3.753,3.663-.429,7.318-.756,10.864-.972,3.6-.219,7.176-.331,10.642-.331h.021c22.908,0,42.786,4.764,59.081,14.161,2.132,1.229,4.231,2.556,6.239,3.943,2.031,1.4,4.025,2.908,5.927,4.471,1.924,1.582,3.807,3.268,5.6,5.013,1.811,1.765,3.578,3.638,5.252,5.568,1.693,1.952,3.338,4.017,4.889,6.138,1.569,2.145,3.086,4.406,4.509,6.721,1.439,2.341,2.823,4.8,4.112,7.318,1.3,2.543,2.548,5.21,3.7,7.929a88.255,88.255,0,0,1,6.266,27.324,149.013,149.013,0,0,1-1.212,32.157c-3.118,22.455-10.689,46.869-21.895,70.6a287.5,287.5,0,0,1-19.182,34.343,256.7,256.7,0,0,1-23.667,30.973,201.338,201.338,0,0,1-27.4,25.558,159.206,159.206,0,0,1-14.859,10.109,134.617,134.617,0,0,1-15.507,7.99,140.892,140.892,0,0,1-31.181,9.119A202.515,202.515,0,0,1,434.8,600.249Z" transform="translate(-170.537 -245.975)" fill="aqua"/>
      <path id="Path_771" data-name="Path 771" d="M532.2,236.061h-.012c-3.58,0-7.277.116-10.988.343-3.66.224-7.432.564-11.21,1.009-7.411.873-15.128,2.183-22.939,3.9-7.612,1.669-15.479,3.756-23.381,6.2-7.719,2.39-15.634,5.173-23.527,8.272a421.1,421.1,0,0,0-89.6,49.07,386.718,386.718,0,0,0-37.927,30.823,278.236,278.236,0,0,0-30.165,32.5,159.818,159.818,0,0,0-20.017,32.31c-1.18,2.636-2.236,5.27-3.138,7.829-.913,2.589-1.692,5.17-2.316,7.671a70.864,70.864,0,0,0-1.456,7.485,59.536,59.536,0,0,0-.558,7.269,94.156,94.156,0,0,0,.431,10.366,91.338,91.338,0,0,0,4.123,19.621,95.175,95.175,0,0,0,3.576,9.239c1.334,2.977,2.851,5.953,4.509,8.846,1.631,2.847,3.442,5.689,5.383,8.446,1.91,2.714,3.995,5.419,6.2,8.039,2.169,2.58,4.509,5.145,6.956,7.624a165.1,165.1,0,0,0,32.929,25.422,227.5,227.5,0,0,0,40.039,18.693c7.016,2.508,14.3,4.758,21.646,6.689,7.281,1.913,14.743,3.544,22.177,4.846,7.411,1.3,14.912,2.29,22.292,2.948,7.4.66,14.8.995,21.993.995a205.526,205.526,0,0,0,36.165-3.061,143.324,143.324,0,0,0,31.862-9.377c2.689-1.172,5.409-2.471,8.084-3.861,2.639-1.371,5.3-2.868,7.924-4.448a162.95,162.95,0,0,0,15.323-10.523c4.9-3.786,9.8-7.981,14.543-12.47,4.637-4.386,9.235-9.147,13.667-14.151a265.4,265.4,0,0,0,24.328-32.278,298.907,298.907,0,0,0,19.683-35.805c11.487-24.753,19.222-50.233,22.367-73.685a157.591,157.591,0,0,0,1.146-33.631,108.005,108.005,0,0,0-2.276-15.084c-.547-2.4-1.183-4.752-1.893-6.993-.718-2.268-1.53-4.483-2.414-6.583-1.2-2.86-2.5-5.667-3.868-8.343-1.348-2.647-2.795-5.238-4.3-7.7-1.488-2.438-3.074-4.819-4.713-7.077-1.621-2.233-3.34-4.408-5.109-6.465-1.749-2.033-3.595-4.007-5.486-5.866-1.87-1.838-3.837-3.615-5.846-5.281-1.986-1.647-4.068-3.232-6.187-4.711-2.1-1.461-4.286-2.859-6.51-4.154-2.2-1.28-4.492-2.5-6.815-3.612-2.3-1.1-4.685-2.141-7.1-3.083-2.388-.932-4.867-1.8-7.369-2.569-2.473-.764-5.037-1.461-7.619-2.07a130.991,130.991,0,0,0-15.915-2.7A155.851,155.851,0,0,0,532.2,236.061ZM447.215,562.037a257.134,257.134,0,0,1-44.2-3.935,267.29,267.29,0,0,1-43.745-11.514c-29.685-10.611-54.855-25.826-72.787-44a112.529,112.529,0,0,1-22.948-32.814,94.64,94.64,0,0,1-3.558-9.192,90.861,90.861,0,0,1-4.1-19.518,93.641,93.641,0,0,1-.429-10.313c.124-9.219,2.622-19.334,7.427-30.063a159.342,159.342,0,0,1,19.957-32.211c16.78-21.539,40.291-43.4,67.993-63.231a420.606,420.606,0,0,1,89.5-49.013,311.451,311.451,0,0,1,46.835-14.452c7.8-1.709,15.5-3.017,22.892-3.888,3.77-.444,7.533-.783,11.184-1.007,3.7-.227,7.389-.342,10.959-.343h.011c23.737,0,44.347,4.993,61.263,14.841,2.213,1.288,4.392,2.679,6.477,4.133,2.109,1.471,4.18,3.047,6.155,4.686,2,1.658,3.955,3.426,5.816,5.254,1.882,1.85,3.719,3.813,5.459,5.837,1.76,2.046,3.471,4.211,5.084,6.433,1.632,2.248,3.211,4.618,4.692,7.045,1.5,2.454,2.939,5.035,4.281,7.671,1.358,2.666,2.654,5.462,3.853,8.312a93.331,93.331,0,0,1,6.547,28.513,157.12,157.12,0,0,1-1.143,33.527c-3.139,23.4-10.86,48.836-22.327,73.546a298.43,298.43,0,0,1-19.651,35.747,264.908,264.908,0,0,1-24.284,32.219,206.479,206.479,0,0,1-28.144,26.559A162.521,162.521,0,0,1,531,541.359c-2.611,1.575-5.268,3.067-7.9,4.433-2.665,1.385-5.375,2.679-8.054,3.847a142.838,142.838,0,0,1-31.754,9.345A205.035,205.035,0,0,1,447.215,562.037Z" transform="translate(-188.098 -202.073)" fill="aqua"/>
      <path id="Path_772" data-name="Path 772" d="M499.21,142.768h-.022c-3.733,0-7.587.121-11.457.359-3.816.234-7.749.588-11.689,1.052-7.727.91-15.775,2.276-23.92,4.061-7.938,1.74-16.141,3.915-24.383,6.465-8.049,2.491-16.3,5.392-24.535,8.622a439.467,439.467,0,0,0-93.453,51.141A403.471,403.471,0,0,0,270.19,246.59a290.206,290.206,0,0,0-31.467,33.872c-9.034,11.583-16.06,22.91-20.883,33.667-1.232,2.747-2.333,5.491-3.275,8.157-.953,2.7-1.766,5.387-2.418,7.992a73.8,73.8,0,0,0-1.521,7.8,61.975,61.975,0,0,0-.584,7.572,97.99,97.99,0,0,0,.446,10.789,95.059,95.059,0,0,0,4.286,20.422,99.021,99.021,0,0,0,3.72,9.616c1.387,3.1,2.966,6.2,4.69,9.208,1.7,2.963,3.581,5.921,5.6,8.792,1.987,2.825,4.157,5.641,6.45,8.368,2.257,2.685,4.693,5.355,7.239,7.936a171.883,171.883,0,0,0,34.315,26.492,237.069,237.069,0,0,0,41.739,19.48c7.314,2.613,14.908,4.959,22.569,6.971,7.592,1.994,15.372,3.693,23.125,5.05,7.728,1.352,15.549,2.386,23.247,3.072,7.721.688,15.437,1.036,22.935,1.036a214.55,214.55,0,0,0,37.742-3.194A149.6,149.6,0,0,0,481.4,469.9c2.8-1.222,5.64-2.576,8.429-4.024,2.752-1.429,5.532-2.989,8.263-4.636a170.063,170.063,0,0,0,15.979-10.967c5.113-3.945,10.216-8.317,15.166-12.995,4.836-4.57,9.632-9.531,14.254-14.745A276.683,276.683,0,0,0,568.861,388.9a311.5,311.5,0,0,0,20.531-37.3c11.983-25.789,20.054-52.335,23.34-76.767a164.061,164.061,0,0,0,1.2-35.035,112.431,112.431,0,0,0-2.369-15.713c-.569-2.5-1.233-4.95-1.972-7.285-.748-2.363-1.594-4.67-2.514-6.857-1.253-2.979-2.609-5.9-4.03-8.689-1.4-2.756-2.912-5.455-4.479-8.022-1.55-2.538-3.2-5.018-4.91-7.37-1.689-2.326-3.48-4.591-5.323-6.732-1.822-2.117-3.745-4.173-5.717-6.109-1.949-1.914-4-3.765-6.091-5.5-2.069-1.716-4.238-3.366-6.447-4.905-2.183-1.522-4.466-2.977-6.783-4.326-2.291-1.333-4.68-2.6-7.1-3.761-2.393-1.149-4.883-2.229-7.4-3.211-2.488-.97-5.072-1.87-7.679-2.676-2.577-.8-5.249-1.521-7.94-2.155a136.593,136.593,0,0,0-16.587-2.81A162.551,162.551,0,0,0,499.21,142.768ZM410.4,482.4a268.35,268.35,0,0,1-46.1-4.1,278.77,278.77,0,0,1-45.615-12c-30.953-11.059-57.19-26.916-75.873-45.857a117.111,117.111,0,0,1-23.883-34.163,98.542,98.542,0,0,1-3.7-9.569,94.572,94.572,0,0,1-4.265-20.318,97.5,97.5,0,0,1-.443-10.735c.131-9.607,2.74-20.147,7.754-31.329,4.807-10.721,11.814-22.015,20.824-33.568,17.506-22.446,42.033-45.233,70.928-65.9a438.979,438.979,0,0,1,93.348-51.084,325.055,325.055,0,0,1,48.845-15.065c8.129-1.782,16.161-3.145,23.873-4.053,3.932-.463,7.855-.816,11.662-1.05,3.86-.237,7.7-.357,11.428-.358h.022c24.74,0,46.219,5.2,63.846,15.455,2.306,1.342,4.578,2.79,6.75,4.3,2.2,1.532,4.356,3.174,6.415,4.881,2.083,1.727,4.122,3.568,6.061,5.473,1.961,1.926,3.875,3.972,5.689,6.079,1.834,2.131,3.617,4.386,5.3,6.7,1.7,2.341,3.346,4.81,4.889,7.338,1.561,2.556,3.062,5.244,4.461,7.99,1.415,2.776,2.766,5.689,4.015,8.657a97.156,97.156,0,0,1,6.819,29.708,163.581,163.581,0,0,1-1.2,34.932c-3.279,24.385-11.336,50.882-23.3,76.628a311.009,311.009,0,0,1-20.5,37.247,276.209,276.209,0,0,1-25.329,33.573,215.409,215.409,0,0,1-29.353,27.678,169.616,169.616,0,0,1-15.933,10.936c-2.723,1.642-5.494,3.2-8.237,4.621-2.78,1.444-5.606,2.793-8.4,4.01a149.12,149.12,0,0,1-33.142,9.75A214.077,214.077,0,0,1,410.4,482.4Z" transform="translate(-153.274 -122.214)" fill="aqua"/>
      <path id="Path_773" data-name="Path 773" d="M507.964,120.589h-.021c-3.826,0-7.777.124-11.743.367-3.911.24-7.942.6-11.981,1.078-3.984.469-8.082,1.06-12.179,1.758-4.044.688-8.195,1.5-12.338,2.405-8.136,1.783-16.545,4.012-24.992,6.626-8.25,2.553-16.712,5.526-25.148,8.838a450.437,450.437,0,0,0-95.788,52.419A413.538,413.538,0,0,0,273.224,227a297.437,297.437,0,0,0-32.253,34.718c-9.259,11.872-16.461,23.482-21.4,34.507-1.262,2.815-2.391,5.628-3.356,8.36-.976,2.765-1.81,5.521-2.478,8.192a75.586,75.586,0,0,0-1.558,7.992,63.514,63.514,0,0,0-.6,7.761,100.414,100.414,0,0,0,.457,11.058,97.425,97.425,0,0,0,4.394,20.931,101.474,101.474,0,0,0,3.813,9.855c1.422,3.176,3.04,6.351,4.808,9.437,1.74,3.037,3.671,6.069,5.74,9.011,2.037,2.9,4.261,5.781,6.611,8.577,2.314,2.752,4.81,5.489,7.42,8.134a176.173,176.173,0,0,0,35.172,27.153,242.991,242.991,0,0,0,42.781,19.966c7.5,2.678,15.28,5.082,23.133,7.145,7.781,2.044,15.756,3.785,23.7,5.175,7.921,1.386,15.938,2.445,23.827,3.148,7.913.7,15.823,1.062,23.508,1.062a219.922,219.922,0,0,0,38.683-3.273A153.343,153.343,0,0,0,489.7,455.889c2.874-1.252,5.781-2.64,8.64-4.124,2.82-1.465,5.67-3.063,8.47-4.751a174.281,174.281,0,0,0,16.378-11.24c5.241-4.043,10.471-8.524,15.545-13.319,4.957-4.684,9.872-9.769,14.61-15.113a283.608,283.608,0,0,0,26.008-34.471A319.285,319.285,0,0,0,600.4,334.633,306.9,306.9,0,0,0,615.661,294.9a247.842,247.842,0,0,0,8.66-38.954,168.144,168.144,0,0,0,1.233-35.91,115.212,115.212,0,0,0-2.429-16.106c-.583-2.561-1.263-5.073-2.022-7.466-.767-2.422-1.634-4.786-2.577-7.028-1.285-3.053-2.674-6.049-4.13-8.906-1.44-2.825-2.985-5.591-4.591-8.222-1.589-2.6-3.282-5.143-5.033-7.554-1.731-2.384-3.567-4.705-5.456-6.9-1.868-2.17-3.839-4.277-5.859-6.261-2-1.962-4.1-3.858-6.243-5.637-2.121-1.758-4.344-3.45-6.608-5.028-2.238-1.56-4.577-3.052-6.953-4.434-2.349-1.366-4.8-2.663-7.278-3.855-2.453-1.178-5-2.285-7.584-3.291-2.55-.994-5.2-1.917-7.871-2.742-2.642-.816-5.38-1.559-8.138-2.209a140.01,140.01,0,0,0-17-2.88A166.618,166.618,0,0,0,507.964,120.589ZM416.942,468.706a275.068,275.068,0,0,1-47.252-4.2,285.758,285.758,0,0,1-46.756-12.3c-31.727-11.335-58.621-27.589-77.772-47a120.048,120.048,0,0,1-24.482-35.018,101,101,0,0,1-3.795-9.809,96.951,96.951,0,0,1-4.372-20.828,99.938,99.938,0,0,1-.455-11c.134-9.848,2.809-20.653,7.948-32.114,4.928-10.99,12.109-22.566,21.344-34.408,17.944-23.008,43.084-46.365,72.7-67.546a449.954,449.954,0,0,1,95.683-52.362A333.179,333.179,0,0,1,459.8,126.668c4.136-.906,8.28-1.714,12.316-2.4,4.09-.7,8.179-1.286,12.155-1.754,4.03-.475,8.052-.837,11.954-1.076,3.957-.243,7.9-.366,11.714-.367h.022c25.36,0,47.377,5.33,65.447,15.842,2.364,1.376,4.692,2.86,6.919,4.413,2.253,1.57,4.465,3.254,6.576,5,2.135,1.77,4.225,3.657,6.213,5.61,2.011,1.975,3.973,4.071,5.831,6.232,1.88,2.185,3.707,4.5,5.431,6.869,1.743,2.4,3.429,4.931,5.012,7.522,1.6,2.62,3.139,5.376,4.573,8.19,1.451,2.846,2.835,5.831,4.115,8.874a99.588,99.588,0,0,1,6.991,30.452,167.669,167.669,0,0,1-1.23,35.807c-3.361,24.995-11.62,52.156-23.882,78.546a318.785,318.785,0,0,1-21.013,38.179,283.107,283.107,0,0,1-25.963,34.413,220.786,220.786,0,0,1-30.089,28.37A173.822,173.822,0,0,1,506.564,446.6c-2.791,1.683-5.632,3.276-8.443,4.736-2.849,1.48-5.746,2.863-8.61,4.11a152.861,152.861,0,0,1-33.971,9.993A219.448,219.448,0,0,1,416.942,468.706Z" transform="translate(-165.126 -103.228)" fill="aqua"/>
      <path id="Path_774" data-name="Path 774" d="M517.392,95.225h-.02c-3.933,0-7.994.128-12.071.378-4.02.247-8.164.62-12.315,1.108-4.095.482-8.306,1.09-12.518,1.806-4.156.707-8.422,1.539-12.68,2.472-8.362,1.832-17,4.124-25.684,6.81-8.479,2.623-17.174,5.679-25.844,9.082a462.861,462.861,0,0,0-98.43,53.864,424.95,424.95,0,0,0-41.669,33.833,305.682,305.682,0,0,0-33.146,35.68c-9.518,12.2-16.921,24.139-22,35.474-1.3,2.9-2.459,5.788-3.451,8.6-1,2.844-1.862,5.679-2.548,8.426a77.83,77.83,0,0,0-1.6,8.223,65.37,65.37,0,0,0-.616,7.987,103.276,103.276,0,0,0,.47,11.373,100.189,100.189,0,0,0,4.518,21.528A104.37,104.37,0,0,0,221.7,352c1.462,3.266,3.126,6.531,4.944,9.706,1.789,3.123,3.775,6.241,5.9,9.266,2.094,2.978,4.381,5.945,6.8,8.819,2.379,2.83,4.945,5.643,7.628,8.363a181.108,181.108,0,0,0,36.157,27.914A249.743,249.743,0,0,0,327.1,436.591c7.705,2.753,15.7,5.223,23.775,7.343,8,2.1,16.193,3.89,24.36,5.319,8.141,1.425,16.38,2.513,24.488,3.235,8.133.725,16.262,1.092,24.161,1.092a226.058,226.058,0,0,0,39.76-3.364,157.654,157.654,0,0,0,35.035-10.307c2.955-1.287,5.944-2.714,8.883-4.241,2.9-1.506,5.829-3.149,8.708-4.885a179.184,179.184,0,0,0,16.837-11.554c5.387-4.156,10.763-8.762,15.979-13.69,5.095-4.814,10.147-10.04,15.017-15.533a291.463,291.463,0,0,0,26.73-35.427,328.12,328.12,0,0,0,21.628-39.3,315.4,315.4,0,0,0,15.686-40.832,254.712,254.712,0,0,0,8.9-40.037,172.835,172.835,0,0,0,1.266-36.917,118.473,118.473,0,0,0-2.5-16.562c-.6-2.634-1.3-5.218-2.08-7.68-.789-2.491-1.682-4.923-2.652-7.23-1.321-3.139-2.75-6.22-4.247-9.157-1.481-2.9-3.069-5.749-4.721-8.455-1.634-2.676-3.375-5.289-5.176-7.768-1.781-2.451-3.668-4.839-5.611-7.1-1.921-2.232-3.948-4.4-6.026-6.439-2.054-2.018-4.215-3.968-6.421-5.8-2.181-1.808-4.468-3.548-6.8-5.171-2.3-1.6-4.708-3.138-7.151-4.56-2.415-1.405-4.934-2.739-7.485-3.964-2.522-1.211-5.146-2.35-7.8-3.384-2.623-1.022-5.346-1.971-8.094-2.82-2.717-.839-5.532-1.6-8.368-2.272-2.8-.661-5.7-1.246-8.623-1.739-2.885-.488-5.864-.9-8.857-1.222A171.278,171.278,0,0,0,517.392,95.225ZM423.886,452.858a282.481,282.481,0,0,1-48.525-4.317,293.453,293.453,0,0,1-48.016-12.631c-32.58-11.64-60.194-28.328-79.857-48.263a123.213,123.213,0,0,1-25.127-35.942,103.651,103.651,0,0,1-3.894-10.066,99.477,99.477,0,0,1-4.486-21.373,102.543,102.543,0,0,1-.466-11.293c.138-10.1,2.882-21.187,8.156-32.947,5.059-11.282,12.432-23.167,21.914-35.325a304.97,304.97,0,0,1,33.068-35.595,424.216,424.216,0,0,1,41.6-33.775,462.127,462.127,0,0,1,98.274-53.779,342.165,342.165,0,0,1,51.418-15.858c4.247-.931,8.5-1.76,12.647-2.465,4.2-.714,8.4-1.32,12.481-1.8,4.138-.487,8.268-.859,12.275-1.1,4.063-.249,8.109-.376,12.027-.376h.021c26.033,0,48.634,5.47,67.181,16.261,2.426,1.412,4.815,2.935,7.1,4.528,2.312,1.611,4.582,3.339,6.748,5.134,2.191,1.816,4.336,3.753,6.376,5.757,2.063,2.027,4.077,4.178,5.984,6.395,1.93,2.242,3.8,4.614,5.574,7.049,1.789,2.463,3.52,5.06,5.144,7.72,1.642,2.689,3.222,5.518,4.694,8.406,1.489,2.921,2.91,5.986,4.224,9.109a102.188,102.188,0,0,1,7.176,31.25,172.115,172.115,0,0,1-1.262,36.761c-3.451,25.667-11.932,53.559-24.526,80.661a327.4,327.4,0,0,1-21.58,39.209,290.74,290.74,0,0,1-26.664,35.339,226.7,226.7,0,0,1-30.9,29.131A178.471,178.471,0,0,1,515.9,430.165c-2.865,1.727-5.781,3.363-8.668,4.862-2.925,1.519-5.9,2.939-8.839,4.219A156.931,156.931,0,0,1,463.519,449.5,225.34,225.34,0,0,1,423.886,452.858Z" transform="translate(-178.027 -81.566)" fill="aqua"/>
      <path id="Path_775" data-name="Path 775" d="M529.236,99.791h-.025c-4.042,0-8.219.13-12.413.384-4.136.25-8.4.629-12.675,1.125-4.216.49-8.554,1.106-12.894,1.834-4.282.718-8.679,1.562-13.07,2.509-8.621,1.86-17.537,4.185-26.5,6.911-8.752,2.662-17.734,5.762-26.7,9.215a486.655,486.655,0,0,0-101.915,54.6,444.347,444.347,0,0,0-43.261,34.254A316.785,316.785,0,0,0,245.3,246.706c-9.92,12.332-17.652,24.379-22.983,35.808-1.362,2.919-2.582,5.835-3.627,8.666-1.058,2.866-1.963,5.722-2.692,8.487a76.894,76.894,0,0,0-1.714,8.276,64.109,64.109,0,0,0-.691,8.033,100.824,100.824,0,0,0,.378,11.1,97.4,97.4,0,0,0,4.26,21.021,101.186,101.186,0,0,0,3.761,9.9c1.407,3.192,3.011,6.385,4.767,9.489,1.728,3.055,3.65,6.1,5.712,9.066,2.03,2.915,4.249,5.82,6.6,8.635,2.312,2.773,4.808,5.531,7.421,8.2a178.283,178.283,0,0,0,36.582,28.2,252.365,252.365,0,0,0,44.913,20.7c7.893,2.774,16.1,5.264,24.395,7.4,8.214,2.115,16.644,3.918,25.055,5.357,8.381,1.434,16.873,2.529,25.241,3.256,8.39.729,16.786,1.1,24.954,1.1a240.892,240.892,0,0,0,41.846-3.5A167.529,167.529,0,0,0,506.359,445.2c3.044-1.309,6.123-2.759,9.153-4.308,2.989-1.528,6.009-3.194,8.977-4.952a187.775,187.775,0,0,0,17.372-11.688c5.562-4.2,11.115-8.85,16.506-13.822,5.266-4.857,10.491-10.126,15.531-15.662a298.514,298.514,0,0,0,27.7-35.669,332,332,0,0,0,22.485-39.51,315.51,315.51,0,0,0,16.391-41.009,251.957,251.957,0,0,0,9.417-40.167,169.15,169.15,0,0,0,1.554-36.99,115.279,115.279,0,0,0-2.453-16.575c-.6-2.635-1.3-5.219-2.084-7.679-.794-2.49-1.693-4.921-2.675-7.225-1.324-3.109-2.758-6.161-4.261-9.07-1.487-2.878-3.084-5.7-4.745-8.375-1.644-2.651-3.4-5.24-5.21-7.695-1.793-2.429-3.7-4.794-5.654-7.03-1.937-2.211-3.982-4.358-6.078-6.38-2.073-2-4.254-3.932-6.482-5.744-2.2-1.792-4.513-3.516-6.866-5.124-2.326-1.59-4.759-3.11-7.229-4.519-2.443-1.393-4.99-2.714-7.573-3.929-2.553-1.2-5.209-2.329-7.9-3.354-2.656-1.013-5.414-1.954-8.2-2.8-2.752-.832-5.605-1.589-8.48-2.252a148.893,148.893,0,0,0-17.728-2.935A177.935,177.935,0,0,0,529.236,99.791ZM427.627,458.683a297.931,297.931,0,0,1-50.074-4.344,303.572,303.572,0,0,1-49.332-12.726c-33.415-11.744-61.5-28.594-81.218-48.728-2.6-2.654-5.083-5.4-7.382-8.155-2.334-2.8-4.541-5.688-6.559-8.586-2.049-2.942-3.959-5.973-5.676-9.009-1.744-3.083-3.337-6.254-4.734-9.424a100.429,100.429,0,0,1-3.734-9.833,96.683,96.683,0,0,1-4.228-20.866,100.073,100.073,0,0,1-.376-11.021c.212-10.152,3.124-21.312,8.656-33.172,5.307-11.376,13.008-23.374,22.892-35.66a316.075,316.075,0,0,1,34.41-36,443.622,443.622,0,0,1,43.19-34.2,485.918,485.918,0,0,1,101.762-54.523,359.638,359.638,0,0,1,53.088-16.094c4.38-.945,8.767-1.787,13.038-2.5,4.328-.725,8.654-1.341,12.858-1.829,4.261-.495,8.512-.872,12.635-1.122,4.18-.253,8.342-.382,12.37-.382h.025c26.433,0,49.349,5.423,68.111,16.119,2.454,1.4,4.869,2.909,7.18,4.487,2.336,1.6,4.63,3.308,6.818,5.088,2.212,1.8,4.378,3.719,6.437,5.7,2.082,2.008,4.113,4.139,6.036,6.335,1.945,2.221,3.835,4.571,5.616,6.983,1.8,2.44,3.543,5.012,5.177,7.646,1.652,2.664,3.239,5.465,4.718,8.326,1.5,2.893,2.921,5.928,4.239,9.021a99.349,99.349,0,0,1,7.155,31.251,168.416,168.416,0,0,1-1.549,36.831c-3.721,25.734-12.623,53.732-25.744,80.966a331.27,331.27,0,0,1-22.435,39.424,297.774,297.774,0,0,1-27.631,35.583,235.284,235.284,0,0,1-31.938,29.393,187.055,187.055,0,0,1-17.3,11.643c-2.955,1.75-5.962,3.409-8.938,4.93-3.015,1.542-6.08,2.984-9.109,4.287A166.808,166.808,0,0,1,469.346,455.2,240.178,240.178,0,0,1,427.627,458.683Z" transform="translate(-191.201 -85.473)" fill="aqua"/>
      <path id="Path_776" data-name="Path 776" d="M541.515,68.374h-.021c-4.179,0-8.5.134-12.832.4-4.275.259-8.684.65-13.1,1.163-4.358.506-8.842,1.144-13.328,1.9-4.426.742-8.971,1.614-13.51,2.593-8.911,1.922-18.126,4.325-27.389,7.143-9.046,2.751-18.328,5.955-27.59,9.523a502.9,502.9,0,0,0-105.325,56.43,459.2,459.2,0,0,0-44.709,35.4,327.424,327.424,0,0,0-35.646,37.29c-10.254,12.748-18.249,25.2-23.761,37.02-1.408,3.019-2.67,6.034-3.751,8.963-1.094,2.965-2.031,5.918-2.785,8.78a79.554,79.554,0,0,0-1.773,8.563,66.36,66.36,0,0,0-.715,8.314,104.254,104.254,0,0,0,.391,11.482,100.757,100.757,0,0,0,4.406,21.745,104.654,104.654,0,0,0,3.89,10.244c1.455,3.3,3.114,6.6,4.93,9.814,1.788,3.159,3.775,6.314,5.908,9.376,2.1,3.014,4.395,6.019,6.822,8.93,2.39,2.867,4.972,5.719,7.674,8.478a184.316,184.316,0,0,0,37.82,29.157,260.855,260.855,0,0,0,46.425,21.4c8.158,2.867,16.642,5.441,25.214,7.649,8.49,2.186,17.2,4.049,25.9,5.537,8.662,1.482,17.44,2.614,26.089,3.366,8.672.753,17.35,1.135,25.793,1.135a249.015,249.015,0,0,0,43.255-3.617,173.2,173.2,0,0,0,38.136-11.074c3.147-1.354,6.331-2.853,9.463-4.454,3.09-1.58,6.212-3.3,9.281-5.12,3.028-1.793,6.085-3.727,9.085-5.747,2.961-1.994,5.947-4.126,8.875-6.336,5.75-4.341,11.491-9.149,17.063-14.288,5.443-5.021,10.844-10.467,16.053-16.189a308.531,308.531,0,0,0,28.629-36.868,343.156,343.156,0,0,0,23.239-40.836,326.091,326.091,0,0,0,16.942-42.386,260.431,260.431,0,0,0,9.734-41.52,174.878,174.878,0,0,0,1.606-38.243c-.231-2.986-.56-5.936-.978-8.767-.422-2.862-.947-5.68-1.559-8.374-.619-2.726-1.344-5.4-2.155-7.943-.821-2.576-1.752-5.091-2.767-7.475-1.369-3.215-2.852-6.371-4.407-9.378-1.538-2.976-3.189-5.889-4.908-8.661-1.7-2.741-3.513-5.419-5.388-7.958-1.855-2.512-3.822-4.958-5.848-7.271-2-2.287-4.118-4.507-6.287-6.6-2.144-2.068-4.4-4.067-6.7-5.941-2.279-1.853-4.668-3.637-7.1-5.3-2.406-1.644-4.922-3.217-7.478-4.674-2.527-1.44-5.162-2.807-7.832-4.063-2.64-1.242-5.387-2.409-8.166-3.469-2.747-1.048-5.6-2.021-8.478-2.891-2.846-.86-5.8-1.643-8.77-2.329-2.939-.677-5.981-1.277-9.04-1.783-3.025-.5-6.151-.921-9.291-1.253A183.975,183.975,0,0,0,541.515,68.374ZM436.538,439.2a307.72,307.72,0,0,1-51.719-4.487,313.552,313.552,0,0,1-50.954-13.145c-34.51-12.129-63.514-29.53-83.876-50.322-2.684-2.74-5.248-5.573-7.622-8.42-2.41-2.89-4.688-5.872-6.771-8.864-2.116-3.038-4.087-6.167-5.86-9.3-1.8-3.182-3.445-6.455-4.887-9.728a103.683,103.683,0,0,1-3.854-10.15,99.786,99.786,0,0,1-4.364-21.537,103.322,103.322,0,0,1-.388-11.376c.218-10.474,3.224-21.992,8.934-34.232,5.479-11.746,13.432-24.136,23.638-36.824a326.463,326.463,0,0,1,35.541-37.179,458.248,458.248,0,0,1,44.615-35.326A501.926,501.926,0,0,1,434.089,91.987a371.462,371.462,0,0,1,54.836-16.623c4.524-.976,9.055-1.846,13.466-2.585,4.47-.749,8.938-1.385,13.28-1.889,4.4-.511,8.791-.9,13.049-1.158,4.317-.261,8.615-.394,12.774-.394h.022c27.3,0,50.955,5.6,70.327,16.642,2.533,1.444,5.026,3,7.411,4.632,2.412,1.648,4.779,3.415,7.037,5.252,2.284,1.858,4.519,3.838,6.644,5.887,2.149,2.072,4.245,4.273,6.231,6.54,2.008,2.293,3.958,4.718,5.8,7.208,1.86,2.519,3.658,5.174,5.344,7.893,1.705,2.75,3.344,5.642,4.87,8.6,1.544,2.987,3.016,6.12,4.376,9.314a102.545,102.545,0,0,1,7.385,32.256,173.916,173.916,0,0,1-1.6,38.031c-3.843,26.579-13.037,55.5-26.59,83.625a342.158,342.158,0,0,1-23.174,40.721,307.567,307.567,0,0,1-28.539,36.752,243,243,0,0,1-32.984,30.357c-2.914,2.2-5.885,4.322-8.832,6.306-2.985,2.01-6.026,3.933-9.038,5.717-3.052,1.807-6.157,3.52-9.229,5.091-3.113,1.592-6.278,3.081-9.406,4.427a172.241,172.241,0,0,1-37.923,11.011A248.048,248.048,0,0,1,436.538,439.2Z" transform="translate(-207.867 -58.629)" fill="aqua"/>
      <path id="Path_777" data-name="Path 777" d="M486.413,39.368c-4.335,0-8.814.138-13.312.411-4.435.269-9.008.676-13.591,1.209-4.521.526-9.172,1.189-13.824,1.971-4.591.772-9.305,1.679-14.012,2.7-9.242,2-18.8,4.5-28.405,7.433-9.381,2.864-19.007,6.2-28.609,9.913-37.1,14.351-74.853,34.671-109.171,58.763a474.865,474.865,0,0,0-46.312,36.874,339.186,339.186,0,0,0-36.9,38.845c-10.606,13.276-18.869,26.248-24.56,38.555-1.453,3.143-2.755,6.282-3.869,9.33-1.127,3.085-2.092,6.159-2.868,9.137a83.081,83.081,0,0,0-1.821,8.908,69.389,69.389,0,0,0-.726,8.644,109.258,109.258,0,0,0,.43,12.034,105.691,105.691,0,0,0,4.655,22.785,109.844,109.844,0,0,0,4.093,10.734c1.53,3.46,3.274,6.92,5.182,10.283,1.878,3.311,3.966,6.616,6.206,9.824,2.2,3.159,4.615,6.307,7.163,9.357,2.51,3,5.219,5.993,8.054,8.883a193.047,193.047,0,0,0,39.371,30.361,271.746,271.746,0,0,0,48.247,22.3c8.474,2.989,17.283,5.672,26.181,7.974,8.814,2.28,17.856,4.222,26.876,5.773,8.988,1.546,18.093,2.726,27.063,3.51,8.994.786,17.991,1.184,26.742,1.184a256.34,256.34,0,0,0,44.65-3.743,178.33,178.33,0,0,0,39.344-11.457c3.262-1.407,6.562-2.965,9.809-4.631,3.2-1.643,6.439-3.435,9.62-5.326,3.139-1.866,6.307-3.879,9.417-5.982,3.07-2.076,6.164-4.3,9.2-6.6,5.96-4.521,11.909-9.529,17.684-14.883,5.642-5.231,11.239-10.907,16.636-16.871a320.432,320.432,0,0,0,29.66-38.439,357.37,357.37,0,0,0,24.061-42.593A340.455,340.455,0,0,0,606.3,232.324a272.539,272.539,0,0,0,10.038-43.316,183.355,183.355,0,0,0,1.607-39.889c-.244-3.113-.589-6.189-1.027-9.141-.442-2.984-.99-5.921-1.629-8.73-.646-2.841-1.4-5.626-2.246-8.279-.854-2.684-1.823-5.3-2.878-7.789-1.427-3.361-2.973-6.659-4.593-9.8-1.6-3.11-3.322-6.155-5.112-9.051-1.77-2.864-3.658-5.662-5.611-8.315-1.931-2.624-3.979-5.18-6.087-7.6-2.085-2.389-4.286-4.709-6.543-6.893-2.231-2.16-4.578-4.248-6.976-6.206-2.371-1.936-4.856-3.8-7.388-5.536-2.5-1.718-5.12-3.36-7.778-4.882-2.628-1.5-5.369-2.933-8.146-4.245-2.746-1.3-5.6-2.517-8.492-3.625-2.857-1.1-5.823-2.112-8.817-3.021-2.96-.9-6.029-1.718-9.121-2.434-3.057-.708-6.22-1.335-9.4-1.864-3.146-.523-6.4-.964-9.662-1.311A190.382,190.382,0,0,0,486.413,39.368ZM378.7,426.582c-8.737,0-17.72-.4-26.7-1.182-8.956-.782-18.048-1.962-27.023-3.5a325.517,325.517,0,0,1-52.979-13.726c-35.9-12.665-66.138-30.835-87.435-52.545-2.826-2.881-5.527-5.86-8.028-8.854-2.539-3.04-4.941-6.177-7.138-9.324-2.231-3.2-4.311-6.489-6.182-9.786-1.9-3.35-3.637-6.8-5.161-10.241a109.376,109.376,0,0,1-4.075-10.687,105.2,105.2,0,0,1-4.633-22.682,108.788,108.788,0,0,1-.428-11.98c.211-10.971,3.319-23.024,9.239-35.826,5.675-12.272,13.918-25.211,24.5-38.457A338.7,338.7,0,0,1,219.5,159a474.362,474.362,0,0,1,46.265-36.836c34.286-24.071,72-44.371,109.068-58.708a384.127,384.127,0,0,1,56.943-17.325c4.7-1.017,9.407-1.923,13.99-2.694,4.645-.781,9.288-1.443,13.8-1.968,4.574-.532,9.138-.938,13.565-1.207,4.488-.272,8.958-.41,13.283-.41,28.48,0,53.183,5.876,73.421,17.464,2.647,1.516,5.253,3.151,7.745,4.862,2.521,1.73,5,3.584,7.356,5.512,2.387,1.95,4.724,4.029,6.946,6.179,2.247,2.175,4.439,4.484,6.515,6.864,2.1,2.406,4.139,4.951,6.062,7.565,1.945,2.643,3.825,5.43,5.589,8.283,1.783,2.885,3.5,5.919,5.094,9.018,1.615,3.133,3.155,6.421,4.578,9.77,4.145,9.758,6.75,21.127,7.742,33.789a182.87,182.87,0,0,1-1.6,39.784c-3.955,27.785-13.469,58.006-27.516,87.394a356.881,356.881,0,0,1-24.029,42.535A319.965,319.965,0,0,1,534.7,357.25c-5.388,5.953-10.975,11.619-16.607,16.841-5.763,5.344-11.7,10.341-17.648,14.853-3.027,2.3-6.115,4.511-9.177,6.582-3.1,2.1-6.262,4.105-9.393,5.967-3.172,1.886-6.4,3.673-9.594,5.312-3.237,1.661-6.527,3.214-9.78,4.617a177.848,177.848,0,0,1-39.238,11.426A255.857,255.857,0,0,1,378.7,426.582Z" transform="translate(-148.412 -33.703)" fill="aqua"/>
      <path id="Path_778" data-name="Path 778" d="M421.933,13.125h0c-4.427,0-9,.141-13.594.42-4.529.275-9.2.69-13.879,1.235-4.616.537-9.366,1.214-14.117,2.013-4.688.788-9.5,1.715-14.309,2.755-4.745,1.027-9.608,2.191-14.454,3.461-4.786,1.254-9.683,2.643-14.553,4.13-9.58,2.924-19.409,6.33-29.215,10.123-37.888,14.655-76.439,35.405-111.484,60.008a484.932,484.932,0,0,0-47.293,37.655,346.378,346.378,0,0,0-37.681,39.667c-10.831,13.557-19.269,26.8-25.081,39.371-1.484,3.209-2.813,6.415-3.951,9.527-1.151,3.15-2.136,6.289-2.929,9.33a84.866,84.866,0,0,0-1.859,9.1,70.862,70.862,0,0,0-.742,8.827,111.6,111.6,0,0,0,.439,12.288A107.912,107.912,0,0,0,81.984,286.3a112.148,112.148,0,0,0,4.179,10.961c1.563,3.533,3.343,7.066,5.292,10.5,1.918,3.38,4.05,6.756,6.337,10.032,2.251,3.225,4.712,6.44,7.314,9.555,2.563,3.068,5.33,6.119,8.224,9.07,2.824,2.879,5.843,5.737,8.974,8.5,3.086,2.719,6.362,5.412,9.735,8,3.328,2.557,6.838,5.082,10.432,7.505,3.548,2.392,7.27,4.747,11.063,7A277.485,277.485,0,0,0,202.8,390.193c8.654,3.053,17.649,5.792,26.735,8.143,9,2.328,18.234,4.312,27.445,5.9,9.178,1.578,18.476,2.784,27.635,3.584,9.184.8,18.372,1.209,27.308,1.209a261.766,261.766,0,0,0,45.595-3.822A182.11,182.11,0,0,0,397.7,393.5c3.331-1.437,6.7-3.028,10.016-4.729,3.271-1.678,6.576-3.508,9.824-5.439,3.205-1.906,6.44-3.961,9.616-6.108,3.135-2.12,6.3-4.386,9.393-6.737,6.086-4.617,12.162-9.73,18.059-15.2,5.761-5.342,11.477-11.138,16.989-17.228a327.227,327.227,0,0,0,30.289-39.252,364.924,364.924,0,0,0,24.571-43.494,347.647,347.647,0,0,0,17.892-45.154,278.3,278.3,0,0,0,10.25-44.233,187.241,187.241,0,0,0,1.641-40.734c-.249-3.179-.6-6.32-1.049-9.335-.452-3.047-1.011-6.046-1.663-8.915-.659-2.9-1.431-5.746-2.293-8.455-.872-2.741-1.861-5.417-2.939-7.954-1.457-3.432-3.035-6.8-4.689-10.01-1.636-3.175-3.393-6.285-5.22-9.242-1.808-2.925-3.735-5.782-5.729-8.491-1.972-2.68-4.063-5.289-6.216-7.757-2.129-2.44-4.376-4.808-6.681-7.039-2.278-2.206-4.675-4.338-7.123-6.338-2.421-1.977-4.959-3.879-7.544-5.653-2.556-1.754-5.228-3.431-7.942-4.986-2.683-1.537-5.482-3-8.318-4.335-2.8-1.325-5.721-2.57-8.672-3.7-2.917-1.118-5.946-2.156-9-3.085-3.023-.918-6.156-1.754-9.313-2.486-3.121-.723-6.351-1.363-9.6-1.9-3.213-.534-6.532-.984-9.867-1.338A194.408,194.408,0,0,0,421.933,13.125ZM311.924,408.542c-8.922,0-18.1-.406-27.266-1.207-9.146-.8-18.431-2-27.6-3.579a332.407,332.407,0,0,1-54.1-14.017c-36.664-12.934-67.54-31.489-89.287-53.66-2.886-2.942-5.644-5.984-8.2-9.042-2.593-3.1-5.046-6.308-7.289-9.522-2.278-3.264-4.4-6.627-6.313-9.994-1.941-3.421-3.714-6.939-5.27-10.458a111.683,111.683,0,0,1-4.162-10.914,107.425,107.425,0,0,1-4.731-23.163,111.13,111.13,0,0,1-.437-12.235c.216-11.2,3.39-23.513,9.436-36.587,5.8-12.533,14.213-25.746,25.02-39.272a345.894,345.894,0,0,1,37.628-39.611A484.449,484.449,0,0,1,196.6,97.664c35.013-24.581,73.528-45.312,111.381-59.953a392.3,392.3,0,0,1,58.15-17.692c4.8-1.039,9.606-1.964,14.287-2.751,4.743-.8,9.485-1.473,14.093-2.01,4.671-.544,9.332-.958,13.852-1.232,4.584-.278,9.147-.419,13.565-.419,29.084,0,54.31,6,74.978,17.835,2.7,1.548,5.364,3.218,7.909,4.965,2.574,1.767,5.1,3.661,7.512,5.629,2.438,1.991,4.824,4.114,7.093,6.311,2.295,2.221,4.533,4.58,6.653,7.009,2.144,2.457,4.227,5.057,6.191,7.725,1.986,2.7,3.906,5.545,5.707,8.459,1.821,2.947,3.571,6.045,5.2,9.21,1.649,3.2,3.221,6.557,4.674,9.978,4.234,9.966,6.894,21.576,7.907,34.508a186.752,186.752,0,0,1-1.638,40.628c-4.038,28.375-13.755,59.236-28.1,89.247a364.408,364.408,0,0,1-24.538,43.436,326.719,326.719,0,0,1-30.244,39.194c-5.5,6.079-11.208,11.866-16.959,17.2-5.885,5.457-11.949,10.56-18.022,15.168-3.091,2.345-6.245,4.607-9.372,6.722-3.168,2.142-6.4,4.192-9.592,6.093-3.239,1.926-6.536,3.751-9.8,5.424-3.306,1.7-6.666,3.282-9.987,4.715a181.621,181.621,0,0,1-40.071,11.668A261.286,261.286,0,0,1,311.924,408.542Z" transform="translate(-76.402 -11.239)" fill="aqua"/>
      <path id="Path_779" data-name="Path 779" d="M352.483.03c-4.521,0-9.192.144-13.882.428-4.625.28-9.394.7-14.173,1.261-4.714.549-9.565,1.24-14.417,2.056-4.787.8-9.7,1.751-14.612,2.813-4.845,1.049-9.812,2.238-14.761,3.534-4.888,1.28-9.888,2.7-14.861,4.218-9.783,2.986-19.821,6.464-29.835,10.337-38.692,14.965-78.06,36.156-113.848,61.28a495.193,495.193,0,0,0-48.3,38.454,353.718,353.718,0,0,0-38.479,40.508c-11.06,13.844-19.677,27.371-25.612,40.206-1.515,3.277-2.873,6.551-4.034,9.729-1.176,3.217-2.182,6.422-2.991,9.527a86.656,86.656,0,0,0-1.9,9.289,72.347,72.347,0,0,0-.757,9.014,113.961,113.961,0,0,0,.448,12.548A110.2,110.2,0,0,0,5.328,278.99,114.538,114.538,0,0,0,9.6,290.183c1.6,3.608,3.414,7.215,5.4,10.723,1.959,3.452,4.136,6.9,6.471,10.244,2.3,3.294,4.812,6.577,7.469,9.758,2.617,3.133,5.442,6.249,8.4,9.262,2.884,2.94,5.967,5.859,9.165,8.676,3.152,2.777,6.5,5.527,9.942,8.174,3.4,2.611,6.983,5.19,10.653,7.665,3.624,2.443,7.425,4.848,11.3,7.147a283.387,283.387,0,0,0,50.315,23.256c8.837,3.117,18.024,5.915,27.3,8.315,9.192,2.377,18.622,4.4,28.028,6.02,9.373,1.612,18.868,2.843,28.223,3.66,9.379.819,18.762,1.235,27.888,1.235a267.333,267.333,0,0,0,46.56-3.9,185.966,185.966,0,0,0,41.027-11.946c3.4-1.467,6.843-3.092,10.229-4.829,3.34-1.713,6.715-3.582,10.032-5.554,3.273-1.946,6.577-4.044,9.82-6.237,3.2-2.165,6.428-4.479,9.592-6.879,6.215-4.715,12.419-9.937,18.441-15.52,5.883-5.455,11.72-11.374,17.349-17.593a334.153,334.153,0,0,0,30.931-40.085,372.686,372.686,0,0,0,25.092-44.418A355.046,355.046,0,0,0,477.5,201.243a284.217,284.217,0,0,0,10.468-45.171,191.2,191.2,0,0,0,1.676-41.6c-.254-3.246-.615-6.454-1.071-9.532-.461-3.111-1.033-6.174-1.7-9.1-.673-2.962-1.461-5.867-2.342-8.633-.891-2.8-1.9-5.532-3-8.121-1.489-3.5-3.1-6.944-4.789-10.222-1.671-3.243-3.465-6.418-5.331-9.438-1.846-2.987-3.814-5.9-5.851-8.671-2.014-2.736-4.149-5.4-6.348-7.921-2.174-2.492-4.469-4.91-6.822-7.188-2.327-2.252-4.774-4.43-7.275-6.472-2.472-2.019-5.064-3.961-7.7-5.773-2.61-1.791-5.339-3.5-8.111-5.091-2.74-1.569-5.6-3.059-8.495-4.427-2.863-1.353-5.843-2.625-8.856-3.78-2.979-1.142-6.072-2.2-9.195-3.15-3.087-.937-6.287-1.791-9.511-2.538-3.187-.738-6.486-1.392-9.8-1.944-3.281-.545-6.671-1-10.076-1.367C369.993.745,366.519.473,363.035.3,359.589.119,356.039.03,352.483.03ZM240.152,403.838c-9.112,0-18.481-.415-27.846-1.233-9.341-.816-18.823-2.046-28.183-3.655a339.487,339.487,0,0,1-55.253-14.315c-37.445-13.209-68.978-32.159-91.189-54.8-2.947-3-5.764-6.111-8.373-9.234-2.648-3.17-5.153-6.442-7.444-9.724-2.327-3.333-4.5-6.767-6.447-10.206-1.982-3.494-3.793-7.087-5.382-10.68a114.065,114.065,0,0,1-4.25-11.145A109.72,109.72,0,0,1,.954,255.188a113.491,113.491,0,0,1-.446-12.495c.22-11.442,3.462-24.014,9.636-37.366,5.919-12.8,14.515-26.293,25.551-40.107a353.222,353.222,0,0,1,38.427-40.453,494.711,494.711,0,0,1,48.249-38.416c35.757-25.1,75.089-46.274,113.745-61.225A400.606,400.606,0,0,1,295.5,7.059c4.9-1.061,9.81-2.006,14.59-2.809,4.844-.814,9.686-1.5,14.392-2.052,4.771-.555,9.53-.979,14.147-1.258,4.681-.284,9.342-.428,13.853-.428,29.7,0,55.466,6.128,76.574,18.214,2.76,1.581,5.478,3.287,8.077,5.07,2.629,1.8,5.21,3.738,7.672,5.749,2.49,2.033,4.927,4.2,7.244,6.445,2.343,2.269,4.63,4.677,6.795,7.159,2.19,2.51,4.317,5.164,6.323,7.89C467.2,53.8,469.158,56.7,471,59.678c1.86,3.009,3.647,6.174,5.313,9.405,1.684,3.268,3.29,6.7,4.774,10.19,4.323,10.177,7.04,22.033,8.075,35.239A190.717,190.717,0,0,1,487.486,156c-4.124,28.977-14.048,60.494-28.7,91.143a372.185,372.185,0,0,1-25.06,44.36,333.667,333.667,0,0,1-30.886,40.027c-5.619,6.209-11.446,12.118-17.319,17.563-6.01,5.573-12.2,10.785-18.4,15.49-3.157,2.395-6.377,4.7-9.571,6.864-3.235,2.188-6.531,4.281-9.8,6.222-3.308,1.967-6.674,3.83-10.005,5.539-3.376,1.732-6.807,3.352-10.2,4.815a185.491,185.491,0,0,1-40.92,11.914A266.854,266.854,0,0,1,240.152,403.838Z" transform="translate(1.24 -0.03)" fill="aqua"/>
      <path id="Path_780" data-name="Path 780" d="M623.83,820.271h0a124.309,124.309,0,0,0-14.356.868c-4.792.56-9.785,1.4-14.838,2.5a203.608,203.608,0,0,0-30.356,9.288,274.8,274.8,0,0,0-58.045,31.459,251.709,251.709,0,0,0-24.6,19.751,180.4,180.4,0,0,0-19.6,20.827,102.932,102.932,0,0,0-13.049,20.715,59.993,59.993,0,0,0-3.578,9.952,41.233,41.233,0,0,0-1.344,9.489,59.523,59.523,0,0,0,.249,6.553,57.649,57.649,0,0,0,2.564,12.409,59.987,59.987,0,0,0,2.242,5.843c.837,1.883,1.79,3.765,2.832,5.595,1.025,1.8,2.165,3.6,3.386,5.342a78.156,78.156,0,0,0,8.287,9.907,104.552,104.552,0,0,0,21.136,16.307,145.789,145.789,0,0,0,25.8,11.972,173.53,173.53,0,0,0,28.3,7.38,168.531,168.531,0,0,0,28.664,2.521,135.168,135.168,0,0,0,23.643-1.99,94.228,94.228,0,0,0,20.855-6.1,90.054,90.054,0,0,0,10.372-5.343,106.439,106.439,0,0,0,9.928-6.752A134.373,134.373,0,0,0,650.6,991.717a171.113,171.113,0,0,0,15.778-20.64A191.558,191.558,0,0,0,679.16,948.2c7.47-15.813,12.519-32.084,14.6-47.054a99.523,99.523,0,0,0,.812-21.486,59.185,59.185,0,0,0-4.208-18.336,76.258,76.258,0,0,0-5.229-10.205,65.71,65.71,0,0,0-6.3-8.619,59.983,59.983,0,0,0-15.446-12.744C652.467,823.463,639.157,820.271,623.83,820.271Zm-56.314,207.716a167.581,167.581,0,0,1-28.5-2.507,172.571,172.571,0,0,1-28.146-7.339c-19.075-6.764-35.177-16.463-46.567-28.047a70.174,70.174,0,0,1-14.312-20.56,57.246,57.246,0,0,1-4.972-24.4c.1-5.833,1.725-12.245,4.835-19.057a101.971,101.971,0,0,1,12.928-20.517c10.874-13.749,26.091-27.715,44.005-40.39a273.814,273.814,0,0,1,57.838-31.348,202.63,202.63,0,0,1,30.212-9.244,137.334,137.334,0,0,1,28.99-3.348h0c15.157,0,28.3,3.149,39.076,9.359,11.768,6.783,20.708,17.25,26.571,31.108a58.236,58.236,0,0,1,4.134,18.037,98.56,98.56,0,0,1-.806,21.276c-2.068,14.874-7.088,31.049-14.517,46.775a181.8,181.8,0,0,1-28.408,43.284A133.4,133.4,0,0,1,631.731,1008a96.6,96.6,0,0,1-20.1,11.977C599.535,1025.217,584.28,1027.987,567.516,1027.987Z" transform="translate(-267.319 -702.253)" fill="aqua"/>
      <path id="Path_781" data-name="Path 781" d="M503.524,131.789H503.5c-3.779,0-7.681.122-11.6.363-3.863.237-7.844.6-11.833,1.065-7.823.921-15.97,2.3-24.215,4.111-8.036,1.761-16.341,3.963-24.683,6.544-8.149,2.521-16.505,5.458-24.838,8.728a444.861,444.861,0,0,0-94.6,51.77,408.406,408.406,0,0,0-40.048,32.518,293.758,293.758,0,0,0-31.855,34.29c-9.145,11.726-16.258,23.193-21.14,34.082-1.247,2.781-2.362,5.559-3.315,8.258-.964,2.731-1.788,5.453-2.447,8.091a74.67,74.67,0,0,0-1.539,7.894,62.732,62.732,0,0,0-.591,7.666,99.194,99.194,0,0,0,.451,10.922,96.241,96.241,0,0,0,4.339,20.674,100.244,100.244,0,0,0,3.766,9.735c1.4,3.137,3,6.273,4.748,9.322,1.718,3,3.626,5.994,5.67,8.9,2.012,2.86,4.208,5.71,6.53,8.471,2.285,2.718,4.751,5.422,7.328,8.035a174.012,174.012,0,0,0,34.739,26.82,240,240,0,0,0,42.255,19.72c7.4,2.645,15.092,5.02,22.848,7.057,7.686,2.019,15.562,3.738,23.41,5.112,7.823,1.369,15.741,2.415,23.533,3.109,7.816.7,15.628,1.049,23.218,1.049a217.212,217.212,0,0,0,38.206-3.232,151.453,151.453,0,0,0,33.658-9.9c2.839-1.237,5.71-2.607,8.533-4.074,2.786-1.447,5.6-3.026,8.365-4.693a172.163,172.163,0,0,0,16.176-11.1c5.176-3.994,10.342-8.419,15.353-13.155,4.9-4.626,9.75-9.648,14.43-14.927a280.1,280.1,0,0,0,25.687-34.046A315.347,315.347,0,0,0,594.825,343.2,303.109,303.109,0,0,0,609.9,303.958a244.791,244.791,0,0,0,8.553-38.475,166.069,166.069,0,0,0,1.218-35.468,113.777,113.777,0,0,0-2.4-15.908c-.576-2.53-1.248-5.011-2-7.375-.757-2.392-1.614-4.727-2.546-6.942-1.269-3.016-2.641-5.975-4.079-8.8-1.422-2.79-2.948-5.522-4.535-8.121-1.569-2.57-3.242-5.08-4.971-7.461-1.71-2.354-3.523-4.647-5.389-6.815-1.845-2.144-3.792-4.224-5.787-6.184-1.973-1.938-4.048-3.811-6.167-5.568-2.095-1.737-4.291-3.408-6.527-4.966-2.211-1.541-4.521-3.014-6.868-4.379-2.32-1.349-4.738-2.63-7.189-3.807-2.423-1.163-4.943-2.257-7.491-3.25-2.519-.982-5.135-1.893-7.774-2.709-2.609-.806-5.314-1.54-8.038-2.182a138.287,138.287,0,0,0-16.792-2.845A164.558,164.558,0,0,0,503.524,131.789ZM413.631,475.613a271.68,271.68,0,0,1-46.669-4.151,282.226,282.226,0,0,1-46.179-12.148c-31.336-11.2-57.9-27.249-76.813-46.425A118.564,118.564,0,0,1,219.792,378.3a99.756,99.756,0,0,1-3.748-9.688,95.747,95.747,0,0,1-4.318-20.571,98.7,98.7,0,0,1-.449-10.869c.133-9.726,2.774-20.4,7.85-31.718,4.867-10.854,11.959-22.288,21.081-33.983,17.722-22.724,42.551-45.792,71.8-66.712a444.37,444.37,0,0,1,94.5-51.714,329.05,329.05,0,0,1,49.448-15.25c8.23-1.8,16.361-3.184,24.168-4.1,3.98-.469,7.952-.826,11.807-1.062,3.908-.24,7.8-.361,11.569-.362h.019c25.047,0,46.8,5.264,64.642,15.648,2.335,1.359,4.635,2.825,6.834,4.358,2.225,1.551,4.41,3.213,6.495,4.942,2.109,1.748,4.173,3.612,6.136,5.54,1.986,1.95,3.924,4.021,5.76,6.154,1.857,2.158,3.662,4.44,5.364,6.784,1.722,2.37,3.387,4.87,4.95,7.429,1.58,2.588,3.1,5.309,4.517,8.089,1.433,2.811,2.8,5.759,4.064,8.764a98.36,98.36,0,0,1,6.905,30.076,165.593,165.593,0,0,1-1.215,35.365c-3.32,24.687-11.476,51.512-23.587,77.577A314.866,314.866,0,0,1,573.635,380.7a279.6,279.6,0,0,1-25.643,33.988,218.053,218.053,0,0,1-29.717,28.02,171.66,171.66,0,0,1-16.131,11.07c-2.756,1.662-5.562,3.236-8.339,4.678-2.814,1.461-5.675,2.827-8.5,4.06a150.97,150.97,0,0,1-33.551,9.87A216.736,216.736,0,0,1,413.631,475.613Z" transform="translate(-159.124 -112.816)" fill="aqua"/>
      <path id="Path_782" data-name="Path 782" d="M506.095,125.317h-.021c-3.806,0-7.736.123-11.682.366-3.891.239-7.9.6-11.919,1.073-3.963.467-8.04,1.055-12.116,1.748-4.022.684-8.152,1.489-12.274,2.393-8.094,1.774-16.458,3.992-24.862,6.592-8.207,2.54-16.624,5.5-25.017,8.792a448.1,448.1,0,0,0-95.288,52.146,411.42,411.42,0,0,0-40.338,32.753,295.919,295.919,0,0,0-32.085,34.538c-9.211,11.811-16.376,23.36-21.294,34.328-1.256,2.8-2.379,5.6-3.339,8.317-.971,2.751-1.8,5.493-2.465,8.149a75.2,75.2,0,0,0-1.551,7.951,63.2,63.2,0,0,0-.6,7.721,99.925,99.925,0,0,0,.454,11,96.929,96.929,0,0,0,4.37,20.823,100.936,100.936,0,0,0,3.793,9.8c1.415,3.159,3.024,6.318,4.782,9.389,1.73,3.021,3.652,6.038,5.71,8.965,2.026,2.881,4.239,5.752,6.576,8.533,2.3,2.738,4.785,5.461,7.381,8.092A175.249,175.249,0,0,0,279.3,435.8a241.7,241.7,0,0,0,42.556,19.862c7.458,2.664,15.2,5.056,23.011,7.107,7.741,2.033,15.673,3.765,23.578,5.148,7.88,1.379,15.854,2.433,23.7,3.132,7.872.7,15.74,1.057,23.385,1.057a218.783,218.783,0,0,0,38.484-3.256,152.561,152.561,0,0,0,33.9-9.975c2.859-1.246,5.751-2.626,8.6-4.1,2.806-1.457,5.641-3.048,8.426-4.727a173.416,173.416,0,0,0,16.294-11.182c5.214-4.022,10.417-8.48,15.465-13.25,4.931-4.66,9.822-9.718,14.535-15.035a282.13,282.13,0,0,0,25.874-34.292,317.641,317.641,0,0,0,20.936-38.038,305.3,305.3,0,0,0,15.184-39.524,246.559,246.559,0,0,0,8.615-38.752,167.269,167.269,0,0,0,1.227-35.723,114.61,114.61,0,0,0-2.416-16.022c-.58-2.548-1.257-5.047-2.011-7.428-.763-2.409-1.626-4.761-2.564-6.991-1.278-3.037-2.66-6.018-4.109-8.86-1.432-2.81-2.969-5.562-4.567-8.18-1.581-2.588-3.265-5.117-5.007-7.514-1.722-2.371-3.548-4.681-5.427-6.864-1.858-2.159-3.819-4.255-5.829-6.229-1.987-1.952-4.077-3.838-6.211-5.608-2.11-1.749-4.321-3.432-6.573-5-2.226-1.552-4.553-3.036-6.917-4.411-2.336-1.359-4.772-2.649-7.24-3.835-2.44-1.172-4.978-2.273-7.545-3.274-2.537-.989-5.172-1.907-7.83-2.728-2.628-.812-5.352-1.551-8.1-2.2a139.282,139.282,0,0,0-16.912-2.865A165.748,165.748,0,0,0,506.095,125.317ZM415.534,471.626a273.623,273.623,0,0,1-47-4.181,284.24,284.24,0,0,1-46.51-12.235c-31.56-11.276-58.311-27.445-77.362-46.758A119.416,119.416,0,0,1,220.3,373.615a100.478,100.478,0,0,1-3.775-9.758,96.445,96.445,0,0,1-4.348-20.72,99.426,99.426,0,0,1-.452-10.948c.134-9.8,2.8-20.545,7.908-31.947,4.9-10.932,12.047-22.449,21.234-34.229,17.851-22.888,42.86-46.124,72.324-67.195a447.6,447.6,0,0,1,95.184-52.09,331.443,331.443,0,0,1,49.806-15.362c4.114-.9,8.236-1.705,12.251-2.388,4.068-.692,8.136-1.279,12.091-1.745,4.009-.472,8.01-.832,11.892-1.07,3.936-.242,7.857-.364,11.653-.365h.022c25.228,0,47.13,5.3,65.105,15.76,2.352,1.368,4.668,2.845,6.883,4.39,2.241,1.562,4.442,3.237,6.541,4.977,2.124,1.761,4.2,3.638,6.181,5.581,2,1.965,3.952,4.05,5.8,6.2,1.87,2.173,3.688,4.472,5.4,6.833,1.734,2.388,3.412,4.9,4.985,7.482,1.592,2.607,3.122,5.348,4.549,8.147,1.443,2.831,2.82,5.8,4.094,8.828a99.073,99.073,0,0,1,6.955,30.293,166.782,166.782,0,0,1-1.224,35.62c-3.344,24.865-11.559,51.884-23.759,78.137a317.138,317.138,0,0,1-20.9,37.98,281.646,281.646,0,0,1-25.83,34.234,219.655,219.655,0,0,1-29.934,28.223,172.944,172.944,0,0,1-16.248,11.151c-2.777,1.674-5.6,3.259-8.4,4.712-2.835,1.472-5.717,2.848-8.566,4.089a152.076,152.076,0,0,1-33.8,9.943A218.3,218.3,0,0,1,415.534,471.626Z" transform="translate(-162.595 -107.276)" fill="aqua"/>
      <path id="Path_783" data-name="Path 783" d="M512.785,108.408h-.026c-3.877,0-7.881.126-11.9.373-3.964.243-8.049.611-12.142,1.093-4.037.476-8.19,1.075-12.343,1.781-4.1.7-8.3,1.517-12.5,2.438-8.245,1.807-16.767,4.067-25.327,6.716-8.361,2.587-16.936,5.6-25.486,8.957a456.512,456.512,0,0,0-97.074,53.123,419.1,419.1,0,0,0-41.094,33.366A301.443,301.443,0,0,0,242.2,251.438c-9.384,12.032-16.682,23.8-21.691,34.97-1.279,2.853-2.424,5.7-3.4,8.472-.989,2.8-1.834,5.6-2.511,8.3a76.64,76.64,0,0,0-1.579,8.1,64.363,64.363,0,0,0-.606,7.865,101.774,101.774,0,0,0,.463,11.206,98.728,98.728,0,0,0,4.453,21.211,102.883,102.883,0,0,0,3.864,9.987c1.441,3.218,3.08,6.436,4.872,9.564,1.763,3.078,3.72,6.15,5.817,9.132,2.064,2.935,4.318,5.859,6.7,8.692,2.345,2.789,4.875,5.562,7.519,8.243A178.543,178.543,0,0,0,281.746,424.7,246.25,246.25,0,0,0,325.1,444.93c7.6,2.714,15.485,5.15,23.443,7.241,7.886,2.071,15.967,3.836,24.02,5.245,8.027,1.4,16.151,2.478,24.146,3.19,8.019.714,16.034,1.077,23.823,1.077a222.848,222.848,0,0,0,39.2-3.318A155.379,155.379,0,0,0,494.272,448.2c2.912-1.269,5.858-2.676,8.755-4.18,2.858-1.485,5.746-3.1,8.583-4.815a176.649,176.649,0,0,0,16.6-11.391c5.311-4.1,10.611-8.639,15.753-13.5,5.023-4.747,10-9.9,14.805-15.316a287.431,287.431,0,0,0,26.356-34.934,323.589,323.589,0,0,0,21.326-38.75,311.034,311.034,0,0,0,15.467-40.264,251.178,251.178,0,0,0,8.776-39.477,170.393,170.393,0,0,0,1.25-36.391,116.759,116.759,0,0,0-2.461-16.321c-.591-2.6-1.28-5.141-2.048-7.566-.777-2.454-1.656-4.85-2.612-7.122-1.3-3.094-2.71-6.13-4.185-9.025-1.459-2.863-3.024-5.666-4.652-8.332-1.61-2.637-3.326-5.212-5.1-7.655-1.755-2.415-3.614-4.768-5.528-6.992-1.893-2.2-3.89-4.334-5.937-6.345-2.024-1.988-4.153-3.91-6.326-5.712-2.149-1.782-4.4-3.5-6.7-5.095-2.268-1.581-4.638-3.092-7.045-4.493-2.38-1.385-4.861-2.7-7.375-3.906-2.485-1.193-5.071-2.315-7.686-3.335-2.584-1.008-5.268-1.943-7.976-2.779-2.677-.827-5.452-1.58-8.247-2.238a141.859,141.859,0,0,0-17.228-2.918A168.833,168.833,0,0,0,512.785,108.408ZM420.533,461.2a278.755,278.755,0,0,1-47.886-4.26,289.582,289.582,0,0,1-47.383-12.465c-32.153-11.487-59.408-27.959-78.817-47.635a121.666,121.666,0,0,1-24.811-35.489,102.347,102.347,0,0,1-3.846-9.94,98.248,98.248,0,0,1-4.431-21.108,101.274,101.274,0,0,1-.461-11.152c.136-9.98,2.846-20.93,8.055-32.546,4.994-11.137,12.272-22.869,21.632-34.87,18.185-23.317,43.663-46.988,73.68-68.454a456.025,456.025,0,0,1,96.97-53.067,337.664,337.664,0,0,1,50.74-15.65c4.191-.919,8.391-1.737,12.481-2.433,4.145-.705,8.289-1.3,12.318-1.778,4.084-.481,8.16-.848,12.115-1.091,4.01-.246,8-.371,11.871-.372h.027c25.7,0,48.01,5.4,66.321,16.054,2.4,1.394,4.755,2.9,7.012,4.472,2.283,1.591,4.525,3.3,6.664,5.071,2.163,1.794,4.282,3.706,6.3,5.685,2.038,2,4.026,4.126,5.91,6.315,1.905,2.214,3.757,4.556,5.5,6.961,1.767,2.432,3.475,5,5.079,7.623,1.622,2.656,3.181,5.448,4.634,8.3,1.47,2.884,2.873,5.91,4.17,8.993a100.933,100.933,0,0,1,7.085,30.862,169.926,169.926,0,0,1-1.247,36.288c-3.406,25.331-11.775,52.856-24.2,79.6a323.1,323.1,0,0,1-21.294,38.692,286.927,286.927,0,0,1-26.311,34.876,223.761,223.761,0,0,1-30.492,28.753,176.155,176.155,0,0,1-16.552,11.36c-2.828,1.706-5.707,3.321-8.556,4.8-2.888,1.5-5.823,2.9-8.726,4.166a154.9,154.9,0,0,1-34.429,10.129A222.371,222.371,0,0,1,420.533,461.2Z" transform="translate(-171.638 -92.802)" fill="aqua"/>
    </g>
  </g>
</svg>
