<svg xmlns="http://www.w3.org/2000/svg" xmlns:xlink="http://www.w3.org/1999/xlink" width="93.404" height="120.916" viewBox="0 0 93.404 120.916">
  <defs>
    <clipPath id="clip-path">
      <rect id="Rectangle_4" data-name="Rectangle 4" width="78.076" height="56.357" fill="#5e5e5e"/>
    </clipPath>
    <linearGradient id="linear-gradient" x1="1" y1="0.386" x2="0" y2="0.92" gradientUnits="objectBoundingBox">
      <stop offset="0" stop-color="#e2008f"/>
      <stop offset="1" stop-color="#00d8d1"/>
    </linearGradient>
  </defs>
  <g id="LOGO" transform="translate(-58.231 -34.134)">
    <g id="Group_3" data-name="Group 3" transform="translate(65.895 43.058)" opacity="0.3">
      <g id="Group_2" data-name="Group 2" transform="translate(0 0)">
        <g id="Group_1" data-name="Group 1" clip-path="url(#clip-path)">
          <path id="Path_16" data-name="Path 16" d="M40.049,68.9a26.925,26.925,0,0,1-7.573-1.087l-2.891-.847a6.57,6.57,0,0,1-4.7-6.271V50.643a20.172,20.172,0,0,1-5.367-.781,18.418,18.418,0,0,1-4.587-2.048,14.482,14.482,0,0,1-3.642-3.267,18.758,18.758,0,0,1-1.257-1.81,10.236,10.236,0,0,1-2.615-.357,11.028,11.028,0,0,1-2.739-1.232,9.321,9.321,0,0,1-2.344-2.111A10.732,10.732,0,0,1,1.08,37.016,11.754,11.754,0,0,1,0,31.992v-.8A11.716,11.716,0,0,1,1.066,26.2a10.856,10.856,0,0,1,1.267-2.045,9.319,9.319,0,0,1,2.345-2.112A10.929,10.929,0,0,1,7.42,20.809a10.139,10.139,0,0,1,2.616-.358,18.8,18.8,0,0,1,1.253-1.806,14.441,14.441,0,0,1,3.642-3.267,18.332,18.332,0,0,1,4.592-2.051,20.537,20.537,0,0,1,5.894-.789H52.88a20.545,20.545,0,0,1,5.905.792,18.271,18.271,0,0,1,4.577,2.046A14.426,14.426,0,0,1,67,18.641a19.021,19.021,0,0,1,1.26,1.815,12.526,12.526,0,0,1,2.4.357,10.925,10.925,0,0,1,2.728,1.228,9.322,9.322,0,0,1,2.343,2.108A10.838,10.838,0,0,1,77,26.172a11.748,11.748,0,0,1,1.08,5.023v.8a11.715,11.715,0,0,1-1.067,5,10.777,10.777,0,0,1-1.274,2.054,9.3,9.3,0,0,1-2.338,2.1,10.985,10.985,0,0,1-2.731,1.23,12.586,12.586,0,0,1-2.4.356A18.612,18.612,0,0,1,67,44.549a14.451,14.451,0,0,1-3.636,3.262,18.428,18.428,0,0,1-4.581,2.048,18.793,18.793,0,0,1-3.575.68v9.321A7.688,7.688,0,0,1,49.716,67.2l-2.094.613A26.925,26.925,0,0,1,40.049,68.9" transform="translate(0 -12.539)" fill="#5e5e5e"/>
        </g>
      </g>
    </g>
    <g id="Group_31" data-name="Group 31" transform="translate(58.231 111.422)">
      <path id="Path_22" data-name="Path 22" d="M128.356,30.48q0-.988-.668-.988h-.872q-.668,0-.668.988v9.471q0,.987.639.987h.872q.668,0,.668-.987V38.179h3.138V40.3q0,3.486-2.673,3.486h-3.166a4.624,4.624,0,0,1-.64-.058q-2-.407-2-3.428V30.131q0-3.487,2.673-3.487h3.167q2.673,0,2.673,3.487v3.022h-3.138Z" transform="translate(-122.981 -20.921)" fill="#fff"/>
      <path id="Path_23" data-name="Path 23" d="M143.282,30.335q0-.7-.929-.7h-.581c-.155,0-.232.1-.232.29V43.786h-3.167V27.894a1.1,1.1,0,0,1,1.249-1.25h3.051a4.744,4.744,0,0,1,2.629.581,2.148,2.148,0,0,1,.858,1.918v3.922h-2.877Z" transform="translate(-127.419 -20.921)" fill="#fff"/>
      <path id="Path_24" data-name="Path 24" d="M161.313,45.123q0,3.486-2.673,3.486h-5.113V45.617h3.922q.7,0,.7-.929V43.206h-2.731q-2.673,0-2.672-3.458v-13.1h3.167V39.487q0,.93.668.93h1.569V26.645h3.167Z" transform="translate(-131.562 -20.922)" fill="#fff"/>
      <path id="Path_25" data-name="Path 25" d="M171.381,48.61h-3.167V27.894a1.1,1.1,0,0,1,1.25-1.249h4.649q2.673,0,2.673,3.486V40.184q0,3.459-2.673,3.458h-2.731Zm1.54-7.961c.465,0,.7-.309.7-.93V30.567q0-.93-.7-.93h-1.307c-.155,0-.233.1-.233.291v10.72Z" transform="translate(-136.024 -20.922)" fill="#fff"/>
      <path id="Path_26" data-name="Path 26" d="M188.036,41.468h-3.167V27.232h-1.918l.291-2.906h1.627V18.6h3.167v5.723h2.12l-.29,2.906h-1.83Z" transform="translate(-140.273 -18.603)" fill="#fff"/>
      <path id="Path_27" data-name="Path 27" d="M204.341,40.3q0,3.486-2.673,3.486h-3.225q-2.673,0-2.673-3.486V30.132q0-3.487,2.673-3.487h3.225q2.673,0,2.673,3.487Zm-3.864.494q.7,0,.7-.93v-9.3q0-.93-.7-.93h-.872q-.669,0-.668.93v9.3q0,.931.668.93Z" transform="translate(-143.969 -20.922)" fill="#fff"/>
      <path id="Path_28" data-name="Path 28" d="M214.409,48.61h-3.167V27.894a1.1,1.1,0,0,1,1.25-1.249h4.649q2.673,0,2.673,3.486V40.184q0,3.459-2.673,3.458h-2.731Zm1.54-7.961c.465,0,.7-.309.7-.93V30.567q0-.93-.7-.93h-1.307c-.156,0-.233.1-.233.291v10.72Z" transform="translate(-148.43 -20.922)" fill="#fff"/>
      <path id="Path_29" data-name="Path 29" d="M235.284,40.3q0,3.486-2.673,3.486h-3.225q-2.673,0-2.673-3.486V30.132q0-3.487,2.673-3.487h3.225q2.673,0,2.673,3.487Zm-3.864.494q.7,0,.7-.93v-9.3q0-.93-.7-.93h-.872q-.668,0-.668.93v9.3q0,.931.668.93Z" transform="translate(-152.892 -20.922)" fill="#fff"/>
      <path id="Path_30" data-name="Path 30" d="M245.353,48.61h-3.167V27.894a1.1,1.1,0,0,1,1.25-1.249h4.649q2.673,0,2.673,3.486V40.184q0,3.459-2.673,3.458h-2.731Zm1.54-7.961c.465,0,.7-.309.7-.93V30.567q0-.93-.7-.93h-1.307c-.156,0-.233.1-.233.291v10.72Z" transform="translate(-157.353 -20.922)" fill="#fff"/>
      <path id="Path_31" data-name="Path 31" d="M177.974,69.15q0-.524-.355-.524h-.463q-.355,0-.355.524v5.029c0,.351.113.525.339.525h.463c.237,0,.355-.174.355-.525v-.941h1.667v1.127q0,1.852-1.42,1.852h-1.682a2.65,2.65,0,0,1-.339-.031q-1.065-.217-1.065-1.821v-5.4q0-1.851,1.419-1.851h1.682q1.419,0,1.419,1.851v1.6h-1.666Z" transform="translate(-138.015 -32.59)" fill="#fff"/>
      <rect id="Rectangle_5" data-name="Rectangle 5" width="1.682" height="12.174" transform="translate(42.922 31.452)" fill="#fff"/>
      <path id="Path_32" data-name="Path 32" d="M192.03,75.553a.594.594,0,0,1-.679.664H188.9q-1.42,0-1.42-1.852V67.113h1.682v7.02c0,.33.118.493.355.493h.71c.082,0,.124-.051.124-.154V67.113h1.682Z" transform="translate(-141.578 -32.59)" fill="#fff"/>
      <path id="Path_33" data-name="Path 33" d="M200.247,73.121q0,1.851-1.42,1.851h-2.468a.586.586,0,0,1-.664-.663V62.8h1.682v3.07h1.45q1.42,0,1.42,1.852Zm-2.052.262c.246,0,.371-.164.371-.493V67.951c0-.329-.125-.493-.371-.493h-.818v5.77c0,.1.04.154.122.154Z" transform="translate(-143.948 -31.346)" fill="#fff"/>
      <path id="Path_34" data-name="Path 34" d="M213.205,73.866h-4.984a.272.272,0,0,1-.273-.273V72.35a.273.273,0,0,1,.273-.273h4.984a.273.273,0,0,1,.273.273v1.244a.272.272,0,0,1-.273.273" transform="translate(-147.481 -34.022)" fill="#409abe"/>
      <path id="Path_35" data-name="Path 35" d="M166.75,73.866h-4.985a.272.272,0,0,1-.273-.273V72.35a.273.273,0,0,1,.273-.273h4.985a.272.272,0,0,1,.272.273v1.244a.272.272,0,0,1-.272.273" transform="translate(-134.085 -34.022)" fill="#409abe"/>
    </g>
    <path id="Intersection_2" data-name="Intersection 2" d="M28.449,58.819l-2.891-.847a.933.933,0,0,1-.671-.9v-.855a.933.933,0,0,1,1.2-.9l2.366.692a21.366,21.366,0,0,0,4.634.818,1.282,1.282,0,0,0,1.364-1.277V14.526H47.279a14.942,14.942,0,0,1,4.29.553,12.705,12.705,0,0,1,3.186,1.409,8.833,8.833,0,0,1,2.238,1.991,12.25,12.25,0,0,1,1.44,2.3,14.607,14.607,0,0,1,1.287,6.25v1.9a14.61,14.61,0,0,1-1.287,6.249,12.169,12.169,0,0,1-1.44,2.3,8.83,8.83,0,0,1-2.238,1.994,12.775,12.775,0,0,1-3.186,1.409,15.014,15.014,0,0,1-4.29.551H44.007V56.246a2.044,2.044,0,0,1-1.469,1.961l-2.093.612a21.326,21.326,0,0,1-12,0ZM42.68,27.978a4.6,4.6,0,1,0,4.6-4.6A4.6,4.6,0,0,0,42.68,27.978ZM28.172,46.259a.623.623,0,0,1-.624-.623V43.552a.624.624,0,0,1,.624-.624h3.16a.625.625,0,0,1,.624.624v2.084a.624.624,0,0,1-.624.623Zm-8.357-4.828a15.03,15.03,0,0,1-4.289-.551,12.816,12.816,0,0,1-3.187-1.409A8.852,8.852,0,0,1,10.1,37.476a12.169,12.169,0,0,1-1.44-2.3,14.6,14.6,0,0,1-1.287-6.249v-1.9a14.6,14.6,0,0,1,1.287-6.25,12.25,12.25,0,0,1,1.44-2.3,8.841,8.841,0,0,1,2.237-1.991,12.7,12.7,0,0,1,3.187-1.409,14.935,14.935,0,0,1,4.289-.553H31.957V26.952H24.62a4.6,4.6,0,1,0-.126,2.5h7.462V41.431Zm40.752-7.8a15.472,15.472,0,0,0,.686-4.7v-1.9a15.476,15.476,0,0,0-.686-4.7h1.079a6.273,6.273,0,0,1,1.8.232,5.323,5.323,0,0,1,1.339.592,3.712,3.712,0,0,1,.94.836,5.164,5.164,0,0,1,.605.965,6.141,6.141,0,0,1,.54,2.625v.8A6.139,6.139,0,0,1,66.331,31a5.143,5.143,0,0,1-.605.965,3.728,3.728,0,0,1-.94.838,5.392,5.392,0,0,1-1.339.591,6.3,6.3,0,0,1-1.8.232Zm-55.342,0a6.3,6.3,0,0,1-1.8-.232,5.392,5.392,0,0,1-1.339-.591,3.728,3.728,0,0,1-.94-.838A5.106,5.106,0,0,1,.541,31,6.13,6.13,0,0,1,0,28.377v-.8a6.132,6.132,0,0,1,.541-2.625,5.126,5.126,0,0,1,.6-.965,3.712,3.712,0,0,1,.94-.836,5.323,5.323,0,0,1,1.339-.592,6.273,6.273,0,0,1,1.8-.232H6.3a15.476,15.476,0,0,0-.686,4.7v1.9a15.472,15.472,0,0,0,.686,4.7ZM31.68,12.538a2.147,2.147,0,0,1-.689-.106c-1.248-.417-1.325-2-1.519-3.083-.112-.621-.327-1.228-.482-1.84q-.649-2.558-1.3-5.119a1.918,1.918,0,0,1,3.719-.941l1.111,4.387L34.93,1.968A1.918,1.918,0,1,1,38.187,4L36.04,7.444l3.67-1.027a1.918,1.918,0,0,1,1.034,3.695l-2.884.806-4,1.121a8.417,8.417,0,0,1-2.173.5Z" transform="translate(71.496 34.134)" fill="url(#linear-gradient)"/>
  </g>
</svg>
