<svg id="LOGO" xmlns="http://www.w3.org/2000/svg" xmlns:xlink="http://www.w3.org/1999/xlink" width="260" height="93.813" viewBox="0 0 260 93.813">
  <defs>
    <clipPath id="clip-path">
      <rect id="Rectangle_4" data-name="Rectangle 4" width="112.2" height="80.989" fill="#5e5e5e"/>
    </clipPath>
    <linearGradient id="linear-gradient" x1="1" y1="0.386" x2="0" y2="0.92" gradientUnits="objectBoundingBox">
      <stop offset="0" stop-color="#e2008f"/>
      <stop offset="1" stop-color="#00d8d1"/>
    </linearGradient>
  </defs>
  <g id="Group_3" data-name="Group 3" transform="translate(0 12.824)" opacity="0.3">
    <g id="Group_2" data-name="Group 2">
      <g id="Group_1" data-name="Group 1" clip-path="url(#clip-path)">
        <path id="Path_16" data-name="Path 16" d="M57.553,93.528a38.694,38.694,0,0,1-10.883-1.562L42.517,90.75a9.441,9.441,0,0,1-6.751-9.012V67.3a28.989,28.989,0,0,1-7.712-1.123,26.468,26.468,0,0,1-6.592-2.943,20.812,20.812,0,0,1-5.233-4.694,26.957,26.957,0,0,1-1.806-2.6,14.709,14.709,0,0,1-3.758-.513,15.848,15.848,0,0,1-3.936-1.77,13.4,13.4,0,0,1-3.369-3.033,15.422,15.422,0,0,1-1.807-2.9A16.891,16.891,0,0,1,0,40.494V39.348a16.837,16.837,0,0,1,1.532-7.177,15.6,15.6,0,0,1,1.821-2.939A13.392,13.392,0,0,1,6.723,26.2a15.706,15.706,0,0,1,3.94-1.772,14.57,14.57,0,0,1,3.759-.514,27.016,27.016,0,0,1,1.8-2.6,20.753,20.753,0,0,1,5.233-4.694,26.344,26.344,0,0,1,6.6-2.947,29.512,29.512,0,0,1,8.47-1.133H75.992a29.524,29.524,0,0,1,8.486,1.138,26.256,26.256,0,0,1,6.578,2.94,20.732,20.732,0,0,1,5.232,4.69A27.337,27.337,0,0,1,98.1,23.915a18,18,0,0,1,3.452.512,15.7,15.7,0,0,1,3.921,1.765,13.4,13.4,0,0,1,3.367,3.029,15.575,15.575,0,0,1,1.809,2.908,16.882,16.882,0,0,1,1.551,7.218v1.146a16.835,16.835,0,0,1-1.533,7.178,15.487,15.487,0,0,1-1.831,2.951,13.36,13.36,0,0,1-3.36,3.024,15.787,15.787,0,0,1-3.925,1.768,18.087,18.087,0,0,1-3.452.511,26.75,26.75,0,0,1-1.814,2.612,20.767,20.767,0,0,1-5.225,4.687,26.482,26.482,0,0,1-6.583,2.943,27.006,27.006,0,0,1-5.137.978v13.4a11.048,11.048,0,0,1-7.9,10.543l-3.009.881a38.694,38.694,0,0,1-10.883,1.562" transform="translate(0 -12.54)" fill="#5e5e5e"/>
      </g>
    </g>
  </g>
  <path id="Path_22" data-name="Path 22" d="M130.705,32.156q0-1.421-.96-1.421h-1.253q-.96,0-.96,1.421V45.767q0,1.419.918,1.418H129.7q.96,0,.96-1.418V43.22h4.509v3.048q0,5.01-3.841,5.01h-4.55a6.645,6.645,0,0,1-.919-.084q-2.881-.584-2.881-4.926V31.655q0-5.012,3.841-5.011h4.551q3.841,0,3.841,5.011V36h-4.509Z" transform="translate(2.791 0.605)" fill="#fff"/>
  <path id="Path_23" data-name="Path 23" d="M145.428,31.948q0-1-1.336-1h-.836c-.223,0-.333.139-.333.417V51.278h-4.551V28.44a1.587,1.587,0,0,1,1.795-1.8h4.384a6.817,6.817,0,0,1,3.778.836,3.087,3.087,0,0,1,1.232,2.756v5.636h-4.134Z" transform="translate(3.141 0.605)" fill="#fff"/>
  <path id="Path_24" data-name="Path 24" d="M165.058,53.2q0,5.01-3.841,5.01h-7.348v-4.3h5.636q1,0,1-1.336V50.444h-3.925q-3.841,0-3.84-4.969V26.645h4.551V45.1q0,1.336.96,1.337h2.254V26.645h4.551Z" transform="translate(3.467 0.605)" fill="#fff"/>
  <path id="Path_25" data-name="Path 25" d="M172.765,58.209h-4.551V28.44a1.587,1.587,0,0,1,1.8-1.795h6.68q3.841,0,3.841,5.01V46.1q0,4.97-3.841,4.969h-3.925Zm2.213-11.441c.668,0,1-.444,1-1.337V32.281q0-1.336-1-1.337H173.1c-.223,0-.334.14-.334.418V46.769Z" transform="translate(3.818 0.605)" fill="#fff"/>
  <path id="Path_26" data-name="Path 26" d="M190.258,51.461h-4.551V31h-2.756l.418-4.176h2.338V18.6h4.551v8.225H193.3L192.887,31h-2.629Z" transform="translate(4.152 0.422)" fill="#fff"/>
  <path id="Path_27" data-name="Path 27" d="M208.087,46.268q0,5.01-3.841,5.01h-4.635q-3.841,0-3.841-5.01V31.656q0-5.012,3.841-5.011h4.635q3.841,0,3.841,5.011Zm-5.553.71q1,0,1-1.337V32.282q0-1.336-1-1.337h-1.253q-.962,0-.96,1.337V45.642q0,1.338.96,1.337Z" transform="translate(4.443 0.605)" fill="#fff"/>
  <path id="Path_28" data-name="Path 28" d="M215.793,58.209h-4.551V28.44a1.587,1.587,0,0,1,1.8-1.795h6.68q3.841,0,3.841,5.01V46.1q0,4.97-3.841,4.969h-3.925Zm2.213-11.441c.668,0,1-.444,1-1.337V32.281q0-1.336-1-1.337h-1.879c-.224,0-.334.14-.334.418V46.769Z" transform="translate(4.794 0.605)" fill="#fff"/>
  <path id="Path_29" data-name="Path 29" d="M239.03,46.268q0,5.01-3.841,5.01h-4.634q-3.841,0-3.841-5.01V31.656q0-5.012,3.841-5.011h4.634q3.841,0,3.841,5.011Zm-5.553.71q1,0,1-1.337V32.282q0-1.336-1-1.337h-1.253q-.96,0-.959,1.337V45.642q0,1.338.959,1.337Z" transform="translate(5.146 0.605)" fill="#fff"/>
  <path id="Path_30" data-name="Path 30" d="M246.737,58.209h-4.551V28.44a1.587,1.587,0,0,1,1.8-1.795h6.68q3.841,0,3.841,5.01V46.1q0,4.97-3.841,4.969h-3.925Zm2.213-11.441c.668,0,1-.444,1-1.337V32.281q0-1.336-1-1.337h-1.879c-.224,0-.334.14-.334.418V46.769Z" transform="translate(5.497 0.605)" fill="#fff"/>
  <path id="Path_31" data-name="Path 31" d="M179.222,70.04q0-.753-.51-.754h-.665q-.511,0-.51.754v7.227c0,.5.163.755.488.755h.665c.341,0,.51-.251.51-.755V75.915h2.4v1.619q0,2.662-2.04,2.661h-2.417a3.807,3.807,0,0,1-.488-.044q-1.531-.311-1.53-2.617V69.773q0-2.66,2.039-2.66h2.418q2.039,0,2.039,2.66v2.306h-2.394Z" transform="translate(3.975 1.523)" fill="#fff"/>
  <rect id="Rectangle_5" data-name="Rectangle 5" width="2.417" height="17.494" transform="translate(187.454 64.224)" fill="#fff"/>
  <path id="Path_32" data-name="Path 32" d="M194.019,79.241a.853.853,0,0,1-.976.954h-3.525q-2.04,0-2.04-2.661V67.113h2.417V77.2c0,.474.17.709.51.709h1.02c.118,0,.178-.074.178-.222V67.113h2.417Z" transform="translate(4.255 1.523)" fill="#fff"/>
  <path id="Path_33" data-name="Path 33" d="M202.236,77.632q0,2.66-2.04,2.66h-3.547a.842.842,0,0,1-.954-.953V62.8h2.418V67.21H200.2q2.04,0,2.04,2.661Zm-2.948.376c.354,0,.533-.235.533-.709V70.2c0-.472-.179-.709-.533-.709h-1.175v8.292c0,.148.057.222.176.222Z" transform="translate(4.442 1.425)" fill="#fff"/>
  <path id="Path_34" data-name="Path 34" d="M215.5,74.648H208.34a.391.391,0,0,1-.392-.392V72.469a.392.392,0,0,1,.392-.392H215.5a.392.392,0,0,1,.392.392v1.788a.391.391,0,0,1-.392.392" transform="translate(4.72 1.636)" fill="#409abe"/>
  <path id="Path_35" data-name="Path 35" d="M169.048,74.648h-7.164a.391.391,0,0,1-.392-.392V72.469a.392.392,0,0,1,.392-.392h7.164a.391.391,0,0,1,.391.392v1.788a.391.391,0,0,1-.391.392" transform="translate(3.665 1.636)" fill="#409abe"/>
  <path id="Intersection_2" data-name="Intersection 2" d="M40.884,84.526,36.73,83.309a1.341,1.341,0,0,1-.964-1.288V80.793a1.341,1.341,0,0,1,1.718-1.287l3.4.995a30.7,30.7,0,0,0,6.659,1.175A1.842,1.842,0,0,0,49.5,79.841V20.875H67.942a21.473,21.473,0,0,1,6.165.8A18.259,18.259,0,0,1,78.686,23.7,12.694,12.694,0,0,1,81.9,26.557a17.6,17.6,0,0,1,2.069,3.3,20.991,20.991,0,0,1,1.849,8.982v2.731a21,21,0,0,1-1.849,8.981,17.486,17.486,0,0,1-2.069,3.3,12.689,12.689,0,0,1-3.216,2.865,18.358,18.358,0,0,1-4.579,2.025,21.576,21.576,0,0,1-6.165.792h-4.7V80.829a2.938,2.938,0,0,1-2.111,2.817l-3.008.88a30.647,30.647,0,0,1-17.239,0ZM61.334,40.207A6.608,6.608,0,1,0,67.942,33.6,6.608,6.608,0,0,0,61.334,40.207ZM40.485,66.477a.9.9,0,0,1-.9-.9V62.587a.9.9,0,0,1,.9-.9h4.541a.9.9,0,0,1,.9.9v2.994a.9.9,0,0,1-.9.9Zm-12.01-6.938a21.6,21.6,0,0,1-6.164-.792,18.418,18.418,0,0,1-4.58-2.025,12.72,12.72,0,0,1-3.215-2.866,17.487,17.487,0,0,1-2.069-3.3A20.979,20.979,0,0,1,10.6,41.572V38.841a20.98,20.98,0,0,1,1.849-8.982,17.6,17.6,0,0,1,2.069-3.3,12.705,12.705,0,0,1,3.215-2.862,18.251,18.251,0,0,1,4.58-2.025,21.462,21.462,0,0,1,6.164-.8H45.924V38.732H35.381a6.606,6.606,0,1,0-.18,3.589H45.924V59.538ZM87.038,48.326a22.234,22.234,0,0,0,.986-6.753V38.841a22.24,22.24,0,0,0-.986-6.754h1.551a9.015,9.015,0,0,1,2.589.334,7.649,7.649,0,0,1,1.924.85,5.334,5.334,0,0,1,1.35,1.2,7.42,7.42,0,0,1,.87,1.387,8.825,8.825,0,0,1,.776,3.772V40.78a8.823,8.823,0,0,1-.776,3.772,7.39,7.39,0,0,1-.87,1.387,5.357,5.357,0,0,1-1.35,1.2,7.749,7.749,0,0,1-1.924.85,9.05,9.05,0,0,1-2.589.333Zm-79.529,0a9.05,9.05,0,0,1-2.589-.333A7.749,7.749,0,0,1,3,47.143a5.357,5.357,0,0,1-1.35-1.2,7.338,7.338,0,0,1-.869-1.387A8.809,8.809,0,0,1,0,40.78V39.632A8.812,8.812,0,0,1,.777,35.86a7.367,7.367,0,0,1,.869-1.387A5.334,5.334,0,0,1,3,33.271a7.649,7.649,0,0,1,1.924-.85,9.015,9.015,0,0,1,2.589-.334H9.061a22.24,22.24,0,0,0-.986,6.754v2.732a22.234,22.234,0,0,0,.986,6.753ZM45.526,18.018a3.085,3.085,0,0,1-.989-.153c-1.793-.6-1.9-2.873-2.183-4.431-.161-.893-.469-1.764-.692-2.644Q40.728,7.113,39.8,3.433a2.757,2.757,0,0,1,5.345-1.352l1.6,6.3L50.2,2.828a2.756,2.756,0,1,1,4.68,2.913L51.792,10.7l5.274-1.475a2.757,2.757,0,0,1,1.486,5.31L54.407,15.69,48.653,17.3a12.1,12.1,0,0,1-3.123.717Z" transform="translate(8.05 0)" fill="url(#linear-gradient)"/>
</svg>
