<svg id="minus-square-Regular" xmlns="http://www.w3.org/2000/svg" width="24" height="24" viewBox="0 0 24 24">
  <rect id="Path" width="24" height="24" fill="rgba(255,255,255,0)"/>
  <path id="minus-square-Regular_1_" d="M650,1012.25h-6a6.758,6.758,0,0,0-6.75,6.75v6a6.758,6.758,0,0,0,6.75,6.75h6a6.758,6.758,0,0,0,6.75-6.75v-6A6.758,6.758,0,0,0,650,1012.25Zm5.25,12.75a5.256,5.256,0,0,1-5.25,5.25h-6a5.256,5.256,0,0,1-5.25-5.25v-6a5.256,5.256,0,0,1,5.25-5.25h6a5.256,5.256,0,0,1,5.25,5.25Zm-3.5-3a.75.75,0,0,1-.75.75h-8a.75.75,0,0,1,0-1.5h8A.75.75,0,0,1,651.75,1022Z" transform="translate(-635 -1010)" fill="#b9289c"/>
</svg>
