<svg xmlns="http://www.w3.org/2000/svg" width="355.001" height="316.823" viewBox="0 0 355.001 316.823">
  <g id="MONKEY_BG" data-name="MONKEY BG" transform="translate(348.653 -1801.134)" opacity="0.05">
    <path id="Intersection_5" data-name="Intersection 5" d="M151.03,312.253l-15.345-4.5a4.953,4.953,0,0,1-3.56-4.757v-4.539a4.952,4.952,0,0,1,6.345-4.753l12.56,3.676a113.428,113.428,0,0,0,24.6,4.342,6.806,6.806,0,0,0,7.242-6.78V77.115h68.116a79.325,79.325,0,0,1,22.775,2.938,67.45,67.45,0,0,1,16.916,7.48A46.894,46.894,0,0,1,302.56,98.1a65.034,65.034,0,0,1,7.644,12.2q6.829,14.633,6.831,33.179v10.088q0,18.545-6.831,33.176a64.6,64.6,0,0,1-7.644,12.2,46.874,46.874,0,0,1-11.88,10.585,67.818,67.818,0,0,1-16.916,7.48,79.7,79.7,0,0,1-22.775,2.928H233.621v78.646a10.852,10.852,0,0,1-7.8,10.408l-11.112,3.251a113.214,113.214,0,0,1-63.682,0ZM226.579,148.53a24.41,24.41,0,1,0,24.41-24.41A24.409,24.409,0,0,0,226.579,148.53Zm-77.021,97.045a3.309,3.309,0,0,1-3.312-3.308V231.206a3.314,3.314,0,0,1,3.312-3.315h16.777a3.317,3.317,0,0,1,3.315,3.315v11.061a3.311,3.311,0,0,1-3.315,3.308Zm-44.366-25.631a79.789,79.789,0,0,1-22.771-2.924A68.037,68.037,0,0,1,65.5,209.54a46.99,46.99,0,0,1-11.877-10.588,64.6,64.6,0,0,1-7.644-12.2q-6.834-14.633-6.831-33.176V143.484q0-18.55,6.831-33.179a65.033,65.033,0,0,1,7.644-12.2A46.935,46.935,0,0,1,65.5,87.53a67.421,67.421,0,0,1,16.919-7.48,79.284,79.284,0,0,1,22.771-2.938h64.458v65.971H130.7a24.4,24.4,0,1,0-.666,13.257h39.612v63.6Zm216.341-41.421a82.136,82.136,0,0,0,3.642-24.947V143.484a82.159,82.159,0,0,0-3.642-24.951h5.729a33.3,33.3,0,0,1,9.565,1.234,28.258,28.258,0,0,1,7.106,3.142,19.706,19.706,0,0,1,4.988,4.441,27.41,27.41,0,0,1,3.213,5.124A32.6,32.6,0,0,1,355,146.408v4.24a32.591,32.591,0,0,1-2.866,13.934,27.3,27.3,0,0,1-3.213,5.124,19.793,19.793,0,0,1-4.988,4.447,28.624,28.624,0,0,1-7.106,3.138,33.43,33.43,0,0,1-9.565,1.231Zm-293.794,0a33.43,33.43,0,0,1-9.565-1.231,28.624,28.624,0,0,1-7.106-3.138,19.791,19.791,0,0,1-4.988-4.447,27.106,27.106,0,0,1-3.21-5.124A32.542,32.542,0,0,1,0,150.648v-4.24a32.552,32.552,0,0,1,2.87-13.934,27.213,27.213,0,0,1,3.21-5.124,19.7,19.7,0,0,1,4.988-4.441,28.258,28.258,0,0,1,7.106-3.142,33.3,33.3,0,0,1,9.565-1.234h5.733a82.158,82.158,0,0,0-3.642,24.951v10.092a82.135,82.135,0,0,0,3.642,24.947ZM168.18,66.561A11.4,11.4,0,0,1,164.525,66c-6.624-2.214-7.032-10.612-8.065-16.369-.6-3.3-1.734-6.518-2.557-9.769q-3.448-13.582-6.889-27.178a10.183,10.183,0,0,1,19.745-4.995l5.9,23.288,12.775-20.527a10.183,10.183,0,1,1,17.29,10.762L191.329,39.516l19.483-5.451A10.184,10.184,0,0,1,216.3,53.681q-7.65,2.142-15.311,4.281-10.624,2.973-21.258,5.95c-3.607,1.009-7.632,2.649-11.538,2.649Z" transform="translate(-348.653 1801.134)" fill="#fff"/>
  </g>
</svg>
