<svg xmlns="http://www.w3.org/2000/svg" xmlns:xlink="http://www.w3.org/1999/xlink" width="120.102" height="35.308" viewBox="0 0 120.102 35.308">
  <defs>
    <linearGradient id="linear-gradient" y1="0.335" x2="1" y2="1" gradientUnits="objectBoundingBox">
      <stop offset="0" stop-color="#e2008f"/>
      <stop offset="1" stop-color="#00d8d1"/>
    </linearGradient>
  </defs>
  <path id="Path_752" data-name="Path 752" d="M62.859,35.308V11.468A1.271,1.271,0,0,1,64.3,10.031h5.35q3.076,0,3.076,4.012V25.612q0,3.979-3.076,3.979H66.5v5.718Zm3.645-21.5V26.147h1.772q.8,0,.8-1.07V14.545q0-1.07-.8-1.07h-1.5Q66.5,13.475,66.5,13.809ZM27.651,33.135V0H30.36V33.135Zm88.806-3.377V14.545q0-1.07-.8-1.07h-1.5q-.268,0-.268.334V29.758h-3.644V11.468a1.271,1.271,0,0,1,1.438-1.438h5.35q3.076,0,3.076,4.012V29.758Zm-15.314,0q-3.076,0-3.076-4.012v-11.7q0-4.012,3.076-4.012h3.711q3.076,0,3.076,4.012v11.7q0,4.012-3.076,4.012Zm.569-15.213v10.7q0,1.07.769,1.07h1q.8,0,.8-1.07v-10.7q0-1.07-.8-1.07h-1Q101.712,13.475,101.712,14.545ZM89.006,29.758a5.545,5.545,0,0,1-.735-.067q-2.307-.468-2.307-3.946v-11.7q0-4.012,3.076-4.012h3.645q3.076,0,3.076,4.012V17.52H92.149V14.444q0-1.137-.769-1.137h-1q-.769,0-.769,1.137v10.9q0,1.137.735,1.137h1q.77,0,.769-1.137V23.3h3.611v2.441q0,4.012-3.076,4.012Zm-9.161,0V3.377h3.812V29.758Zm-26.08,0q-3.076,0-3.076-4.012v-11.7q0-4.012,3.076-4.012h3.711q3.076,0,3.076,4.012v11.7q0,4.012-3.076,4.012Zm.568-15.213v10.7q0,1.07.769,1.07h1q.8,0,.8-1.07v-10.7q0-1.07-.8-1.07h-1Q54.333,13.475,54.333,14.545ZM38.685,29.758V4.915a1.345,1.345,0,0,1,1.5-1.538h5.316q3.277,0,3.277,4.313v7.59q0,4.28-3.277,4.28H42.5v10.2ZM42.5,7.389v8.693H44.3q.836,0,.836-1.237V8.259q0-1.237-.836-1.237H42.831Q42.5,7.022,42.5,7.389ZM15.548,29.758V21.566H10.432a1,1,0,0,1-1.137-1.137V3.377h3.611V17.788q0,.268.234.268h2.407V3.377h3.778V29.758Zm-14.043,0A1.345,1.345,0,0,1,0,28.22V3.377H3.812v22.4q0,.368.334.368h3.31v3.611Z" fill="url(#linear-gradient)"/>
</svg>
