<svg xmlns="http://www.w3.org/2000/svg" xmlns:xlink="http://www.w3.org/1999/xlink" width="117.328" height="34.362" viewBox="0 0 117.328 34.362">
  <defs>
    <linearGradient id="linear-gradient" x1="1" y1="0.386" x2="0" y2="0.92" gradientUnits="objectBoundingBox">
      <stop offset="0" stop-color="#e2008f"/>
      <stop offset="1" stop-color="#00d8d1"/>
    </linearGradient>
  </defs>
  <path id="Path_688" data-name="Path 688" d="M474.949,74.022a2.332,2.332,0,0,1-.523-.044l-.174-.044a3.551,3.551,0,0,1-1.568-.74q-1.437-1.133-1.437-4.4V65.617h4.7v2.657q0,1.481,1,1.48h1.307q.958,0,.958-1.48V66.139q0-.043.022-.762a4.285,4.285,0,0,0-.2-1.415q-.217-.7-.74-.7l-3.528-.044a3.354,3.354,0,0,1-2.5-1.132,3.947,3.947,0,0,1-.98-2.744l-.044-5.793a6.114,6.114,0,0,1,.98-3.92,3.611,3.611,0,0,1,3.027-1.307H480q4.007,0,4.007,5.226V56.6h-4.7V54.075q0-1.481-1-1.48H477q-1,0-1,1.48l.043,4.181a.671.671,0,0,0,.7.7l3.528.044a4.824,4.824,0,0,1,2.482.544,2.663,2.663,0,0,1,.958,1.894,37.2,37.2,0,0,1,.261,4.617V68.8q0,4.4-3.005,5.139l-.174.044a2.34,2.34,0,0,1-.523.044Zm-15.679,0q-4.18,0-4.18-5.575V39.66h4.965V67.707q0,1.611,1.132,1.612h1.307q1.089,0,1.088-1.612V39.66h5.009V68.447q0,5.575-4.268,5.575Zm-28.57,0q-4.007,0-4.007-5.226V48.327h4.573V68.143q0,1.393,1,1.393h1.786V48.327h4.4v21.21H440.2q1.045,0,1.045-1.393V48.327h4.573V68.8q0,5.226-4.007,5.226Zm-15.852,0q-4.007,0-4.007-5.226V53.553q0-5.226,4.007-5.226h4.834q4.006,0,4.007,5.226V68.8q0,5.226-4.007,5.226Zm.74-19.816V68.143q0,1.393,1,1.393H417.9q1.046,0,1.045-1.393V54.206q0-1.393-1.045-1.393H416.59Q415.588,52.813,415.588,54.206Zm-12.5,19.816V39.66h4.747V74.022Zm-7.752,0V39.66h4.747V74.022Zm-11.846,0q-4.007,0-4.007-5.226V53.553q0-5.226,4.007-5.226h4.834q4.006,0,4.007,5.226V68.8q0,5.226-4.007,5.226Zm.74-19.816V68.143q0,1.393,1,1.393h1.307q1.046,0,1.045-1.393V54.206q0-1.393-1.045-1.393h-1.307Q384.231,52.813,384.231,54.206ZM366.68,74.022V41.663a1.771,1.771,0,0,1,2-2h8.362l-.436,4.747H372.08q-.436,0-.436.48v9.494h4.965v4.573h-4.965V74.022Z" transform="translate(-366.68 -39.66)" fill="url(#linear-gradient)"/>
</svg>
