<svg xmlns="http://www.w3.org/2000/svg" xmlns:xlink="http://www.w3.org/1999/xlink" width="221.894" height="77.566" viewBox="0 0 221.894 77.566">
  <defs>
    <linearGradient id="linear-gradient" x1="0.961" x2="-0.053" y2="0.924" gradientUnits="objectBoundingBox">
      <stop offset="0" stop-color="#e2008f"/>
      <stop offset="1" stop-color="#00d8d1"/>
    </linearGradient>
  </defs>
  <path id="Path_686" data-name="Path 686" d="M20.587,110.173H11.165V54.943H4.18l.812-8.853H28.384l-.812,8.853H20.587Zm22.661-8.366q1.949,0,1.949-2.6V73.218q0-2.6-1.949-2.6H40.81q-1.868,0-1.868,2.6V99.208q0,2.6,1.868,2.6Zm10.8-1.381q0,9.746-7.472,9.746H37.562q-7.472,0-7.472-9.746V72q0-9.746,7.472-9.746h9.015q7.472,0,7.472,9.746Zm26.559,9.746H71.349V49.826q0-3.736,3.655-3.736H87.918q7.96,0,7.96,10.477V75q0,10.4-7.96,10.4h-7.31Zm4.386-33.219q2.031,0,2.031-3.005v-16q0-3.005-2.031-3.005H81.421q-.812,0-.812.893V76.954Zm28.671,24.853q1.949,0,1.949-2.6V73.218q0-2.6-1.949-2.6h-2.437q-1.868,0-1.868,2.6V99.208q0,2.6,1.868,2.6Zm10.8-1.381q0,9.746-7.472,9.746H107.98q-7.472,0-7.472-9.746V72q0-9.746,7.472-9.746H117q7.472,0,7.472,9.746Zm18.762.975q1.949,0,1.949-2.6V73.218q0-2.6-1.949-2.6h-3.655q-.65,0-.65.812V101.4Zm-4.3,22.254h-8.853V65.745q0-3.492,3.492-3.492h13q7.472,0,7.472,9.746v28.1q0,9.665-7.472,9.665h-7.635ZM184.571,101.4q2.518,0,2.518-3.005V84.589q0-2.761-2.437-2.761h-4.061v18.681q0,.893.812.893Zm.081-28.1q2.437,0,2.437-2.843V57.948q0-3.005-2.518-3.005H181.4q-.812,0-.812.893V73.3Zm11.615,26.478q0,5.361-1.99,7.878t-6.376,2.518H174.987q-3.655,0-3.655-3.736V49.826q0-3.736,3.655-3.736H187.9q8.2,0,8.2,10.477v13.97q0,5.361-3.492,7.147,3.655,2.031,3.655,7.716Zm29.808,14.132q0,9.746-7.472,9.746H204.307V115.29h10.965q1.949,0,1.949-2.6v-4.142h-7.635q-7.472,0-7.472-9.665V62.253h8.853v35.9q0,2.6,1.868,2.6h4.386v-38.5h8.853Z" transform="translate(-4.18 -46.09)" fill="url(#linear-gradient)"/>
</svg>
