<svg xmlns="http://www.w3.org/2000/svg" xmlns:xlink="http://www.w3.org/1999/xlink" width="97.465" height="35.308" viewBox="0 0 97.465 35.308">
  <defs>
    <linearGradient id="linear-gradient" y1="0.335" x2="1" y2="1" gradientUnits="objectBoundingBox">
      <stop offset="0" stop-color="#e2008f"/>
      <stop offset="1" stop-color="#00d8d1"/>
    </linearGradient>
  </defs>
  <path id="Path_687" data-name="Path 687" d="M87.6,35.308V11.468a1.271,1.271,0,0,1,1.438-1.438h5.35q3.076,0,3.076,4.012V25.612q0,3.979-3.076,3.979H91.246v5.718Zm3.644-21.5V26.147h1.772q.8,0,.8-1.07V14.545q0-1.07-.8-1.07h-1.5Q91.246,13.475,91.246,13.809Zm-32.8,21.5V11.468a1.271,1.271,0,0,1,1.438-1.438h5.35q3.076,0,3.076,4.012V25.612q0,3.979-3.076,3.979H62.09v5.718Zm3.645-21.5V26.147h1.772q.8,0,.8-1.07V14.545q0-1.07-.8-1.07h-1.5Q62.091,13.475,62.09,13.809ZM23.238,33.135V0h2.708V33.135Zm55.27-3.377q-3.076,0-3.076-4.012V10.031h3.644V25.244q0,1.07.769,1.07h1.538q.268,0,.268-.334V10.031h3.644V28.32a1.286,1.286,0,0,1-1.471,1.438Zm-29.156,0q-3.076,0-3.076-4.012v-11.7q0-4.012,3.076-4.012h3.711q3.076,0,3.076,4.012v11.7q0,4.012-3.076,4.012Zm.568-15.213v10.7q0,1.07.769,1.07h1q.8,0,.8-1.07v-10.7q0-1.07-.8-1.07h-1Q49.92,13.475,49.92,14.545ZM34.272,29.758V4.915a1.345,1.345,0,0,1,1.5-1.538h5.316q3.277,0,3.277,4.313v7.59q0,4.28-3.277,4.28H38.083v10.2ZM38.083,7.389v8.693h1.806q.836,0,.836-1.237V8.259q0-1.237-.836-1.237H38.418Q38.084,7.022,38.083,7.389ZM11.067,29.758V8.259q0-1.237-.836-1.237H8.994V3.377h2.642q3.277,0,3.276,4.313V29.758Zm-9.563,0A1.345,1.345,0,0,1,0,28.22V3.377H3.812v22.4q0,.368.334.368h3.31v3.611Z" fill="url(#linear-gradient)"/>
</svg>
