<svg xmlns="http://www.w3.org/2000/svg" xmlns:xlink="http://www.w3.org/1999/xlink" width="113.247" height="35.308" viewBox="0 0 113.247 35.308">
  <defs>
    <linearGradient id="linear-gradient" y1="0.335" x2="1" y2="1" gradientUnits="objectBoundingBox">
      <stop offset="0" stop-color="#e2008f"/>
      <stop offset="1" stop-color="#00d8d1"/>
    </linearGradient>
  </defs>
  <path id="Path_750" data-name="Path 750" d="M103.384,35.308V11.468a1.271,1.271,0,0,1,1.438-1.438h5.35q3.076,0,3.076,4.012V25.612q0,3.979-3.076,3.979h-3.143v5.718Zm3.645-21.5V26.147H108.8q.8,0,.8-1.07V14.545q0-1.07-.8-1.07h-1.5Q107.029,13.475,107.028,13.809Zm-44.8,21.5V11.468a1.271,1.271,0,0,1,1.438-1.438h5.35q3.076,0,3.076,4.012V25.612q0,3.979-3.076,3.979H65.869v5.718Zm3.644-21.5V26.147h1.772q.8,0,.8-1.07V14.545q0-1.07-.8-1.07h-1.5Q65.869,13.475,65.869,13.809ZM27.016,33.135V0h2.708V33.135Zm67.273-3.377q-3.076,0-3.076-4.012v-11.7q0-4.012,3.076-4.012H98q3.076,0,3.076,4.012v11.7q0,4.012-3.076,4.012Zm.568-15.213v10.7q0,1.07.769,1.07h1q.8,0,.8-1.07v-10.7q0-1.07-.8-1.07h-1Q94.858,13.475,94.857,14.545ZM79.209,29.758V4.915a1.345,1.345,0,0,1,1.5-1.538H86.03q3.277,0,3.277,4.313v7.59q0,4.28-3.277,4.28H83.021v10.2ZM83.021,7.389v8.693h1.806q.836,0,.836-1.237V8.259q0-1.237-.836-1.237H83.356Q83.021,7.022,83.021,7.389ZM53.129,29.758q-3.076,0-3.076-4.012v-11.7q0-4.012,3.076-4.012h3.711q3.076,0,3.076,4.012v11.7q0,4.012-3.076,4.012ZM53.7,14.545v10.7q0,1.07.769,1.07h1q.8,0,.8-1.07v-10.7q0-1.07-.8-1.07h-1Q53.7,13.475,53.7,14.545ZM38.05,29.758V4.915a1.345,1.345,0,0,1,1.5-1.538h5.316q3.277,0,3.277,4.313v7.59q0,4.28-3.277,4.28H41.862v10.2ZM41.862,7.389v8.693h1.806q.836,0,.836-1.237V8.259q0-1.237-.836-1.237H42.2Q41.862,7.022,41.862,7.389ZM10.532,29.758A1,1,0,0,1,9.4,28.621V21.432a5.472,5.472,0,0,1,.97-3.243l3.778-5.082a3.94,3.94,0,0,0,.7-2.374V8.593q0-1.571-1.237-1.571H9.9V3.377h4.548q4.246,0,4.246,5.049v2.809a5.053,5.053,0,0,1-1,3.176L13.943,19.46a4.108,4.108,0,0,0-.736,2.441v3.979q0,.268.234.267H18.59v3.611Zm-9.028,0A1.345,1.345,0,0,1,0,28.22V3.377H3.812v22.4q0,.368.334.368h3.31v3.611Z" fill="url(#linear-gradient)"/>
</svg>
