<svg xmlns="http://www.w3.org/2000/svg" xmlns:xlink="http://www.w3.org/1999/xlink" width="137.154" height="35.308" viewBox="0 0 137.154 35.308">
  <defs>
    <linearGradient id="linear-gradient" y1="0.335" x2="1" y2="1" gradientUnits="objectBoundingBox">
      <stop offset="0" stop-color="#e2008f"/>
      <stop offset="1" stop-color="#00d8d1"/>
    </linearGradient>
  </defs>
  <path id="Path_751" data-name="Path 751" d="M60.953,35.308V11.468a1.271,1.271,0,0,1,1.438-1.438h5.35q3.076,0,3.076,4.012V25.612q0,3.979-3.076,3.979H64.6v5.718Zm3.645-21.5V26.147H66.37q.8,0,.8-1.07V14.545q0-1.07-.8-1.07h-1.5Q64.6,13.475,64.6,13.809ZM25.745,33.135V0h2.708V33.135Zm107.731-3.377L131.8,21.566q-.134-.5-.869-.5h-.3v8.693H126.99V3.377h3.644V18.055h.3q.769,0,.9-.535l1.772-7.489h3.444l-1.839,7.456a4,4,0,0,1-1.1,1.906,3.165,3.165,0,0,1,1.1,1.906l1.939,8.459Zm-15.548,0a5.55,5.55,0,0,1-.735-.067q-2.307-.468-2.307-3.946v-11.7q0-4.012,3.076-4.012h3.644q3.076,0,3.076,4.012V17.52h-3.611V14.444q0-1.137-.769-1.137h-1q-.769,0-.769,1.137v10.9q0,1.137.736,1.137h1q.769,0,.769-1.137V23.3h3.611v2.441q0,4.012-3.076,4.012Zm-12.137,0q-3.076,0-3.076-4.012v-11.7q0-4.012,3.076-4.012H109.5q3.076,0,3.076,4.012v11.7q0,4.012-3.076,4.012Zm.569-15.213v10.7q0,1.07.769,1.07h1q.8,0,.8-1.07v-10.7q0-1.07-.8-1.07h-1Q106.36,13.475,106.36,14.545Zm-9.6,15.213V3.377h3.645V29.758Zm-15.614,0q-3.21,0-3.21-4.28V14.946A3.141,3.141,0,0,1,79.41,12a2.9,2.9,0,0,1-1.27-2.708V7.69q0-4.313,3.243-4.313H88.1V7.022h-5.45q-.869,0-.869,1.237v.97q0,.936.869.936h7.222v3.511H88.1V26.147h1.772v3.611Zm.6-15.079V24.91q0,1.237.869,1.237h1.806V13.675H82.654Q81.751,13.675,81.751,14.678ZM51.859,29.758q-3.076,0-3.076-4.012v-11.7q0-4.012,3.076-4.012H55.57q3.076,0,3.076,4.012v11.7q0,4.012-3.076,4.012Zm.568-15.213v10.7q0,1.07.769,1.07h1q.8,0,.8-1.07v-10.7q0-1.07-.8-1.07h-1Q52.427,13.475,52.427,14.545ZM36.779,29.758V4.915a1.345,1.345,0,0,1,1.5-1.538H43.6q3.277,0,3.277,4.313v7.59q0,4.28-3.277,4.28H40.591v10.2ZM40.591,7.389v8.693H42.4q.836,0,.836-1.237V8.259q0-1.237-.836-1.237H40.926Q40.591,7.022,40.591,7.389ZM9.161,29.758V26.147h3.277q1.137,0,1.137-1.471V19.259q0-1.17-1.07-1.17H9.329V14.578H12.5q1.07,0,1.07-1.2V8.492q0-1.471-1.137-1.471H9.161V3.377h3.945q4.18,0,4.18,5.049v5.015a3.007,3.007,0,0,1-1.471,2.942,3.283,3.283,0,0,1,1.538,3.177v5.149q0,5.049-4.247,5.049Zm-7.657,0A1.345,1.345,0,0,1,0,28.22V3.377H3.812v22.4q0,.368.334.368h3.31v3.611Z" fill="url(#linear-gradient)"/>
</svg>
